<svg xmlns="http://www.w3.org/2000/svg" height="169.03225937941568" width="433.48387107938436"><rect id="backgroundrect" width="100%" height="100%" x="0" y="0" fill="none" stroke="none"/> <g class="currentLayer" style=""><title>Layer 1</title><g id="svg_1" class="" transform=""><path d="m 128 67.8478 h 284.371 v 31.9496 h -284.371 Z m 0 0" fill="#1e88e5" data-original="#1E88E5" class="active-path" style="fill:#969696" data-old_color="#979797" id="svg_2" transform=""/><path d="m 349.177 162.515 c -6.79223 -5.54204 -7.85291 -15.5926 -2.36822 -22.4607 l 45.2622 -56.7581 l -45.2622 -56.7581 c -5.48469 -6.87197 -4.40858 -16.9186 2.38364 -22.4607 c 6.79223 -5.54594 16.7472 -4.45781 22.2126 2.39466 l 61.2805 76.8241 l -61.2805 76.8046 c -5.49627 6.87197 -15.4358 7.9562 -22.2281 2.41416 Z m 0 0" fill="#42a5f5" data-original="#42A5F5" class="" style="fill:#777777" data-old_color="#E6EAEA" id="svg_3" transform=""/><path d="m 507.161 339.419 h -221.177 v -143.773 c 0 -8.81812 7.07765 -15.9748 15.7984 -15.9748 s 15.7984 7.15668 15.7984 15.9748 v 111.824 h 157.984 v -447.294 h -157.984 v 111.824 c 0 8.81812 -7.07765 15.9748 -15.7984 15.9748 s -15.7984 -7.15668 -15.7984 -15.9748 v -143.773 h 221.177 Z m 0 0" fill="#80deea" data-original="#80DEEA" class="" style="fill:transparent" data-old_color="transparent" id="svg_4" transform=""/><g fill="#42a5f5" id="svg_5" transform=""><path d="m 1.6129 67.8478 h 31.5968 v 31.9496 h -31.5968 Z m 0 0" data-original="#000000" class="" style="fill:#CDD4D5" data-old_color="#000000" id="svg_6" transform=""/><path d="m 64.8064 67.8478 h 31.5968 v 31.9496 h -31.5968 Z m 0 0" data-original="#000000" class="" style="fill:#CDD4D5" data-old_color="#000000" id="svg_7" transform=""/></g></g></g></svg>