<svg id="svg" version="1.1" width="400" height="420.85308056872043" viewBox="0 0 400 420.85308056872043" xmlns="http://www.w3.org/2000/svg" xmlns:xlink="http://www.w3.org/1999/xlink" ><g id="svgg"><path id="path0" d="M165.794 63.014 C 160.204 66.888,159.829 67.151,158.289 68.286 C 157.458 68.899,155.748 70.116,154.489 70.990 C 153.230 71.865,151.270 73.305,150.133 74.190 C 148.996 75.076,146.240 77.060,144.009 78.600 C 141.778 80.140,139.362 81.850,138.641 82.400 C 137.920 82.950,136.896 83.708,136.365 84.085 C 135.287 84.851,131.279 87.741,126.907 90.906 C 125.315 92.058,122.827 93.810,121.378 94.800 C 119.929 95.790,117.653 97.455,116.320 98.500 C 114.988 99.545,113.764 100.400,113.600 100.400 C 113.436 100.400,112.207 101.255,110.869 102.300 C 109.531 103.345,107.791 104.650,107.002 105.200 C 106.213 105.750,104.956 106.650,104.210 107.200 C 103.463 107.750,101.600 109.069,100.070 110.131 C 98.539 111.193,96.952 112.319,96.543 112.633 C 95.667 113.307,90.371 117.144,88.484 118.473 C 87.759 118.983,86.552 119.850,85.800 120.400 C 85.048 120.950,83.841 121.809,83.116 122.309 C 82.392 122.809,80.266 124.339,78.391 125.709 C 76.516 127.079,74.451 128.546,73.801 128.968 C 73.152 129.390,72.436 129.887,72.210 130.073 C 71.985 130.258,71.131 130.902,70.314 131.505 C 69.496 132.107,67.994 133.220,66.975 133.977 C 65.956 134.734,64.959 135.781,64.761 136.303 C 64.205 137.766,64.287 319.314,64.844 320.537 C 65.088 321.073,65.673 321.704,66.144 321.938 C 68.099 322.911,70.134 323.583,72.301 323.972 C 73.565 324.199,75.950 324.739,77.600 325.173 C 81.600 326.225,85.753 327.212,88.200 327.691 C 89.300 327.907,91.280 328.410,92.600 328.810 C 93.920 329.210,95.810 329.653,96.800 329.796 C 97.790 329.938,99.680 330.393,101.000 330.806 C 102.320 331.220,104.300 331.681,105.400 331.831 C 106.500 331.982,108.030 332.351,108.800 332.651 C 109.570 332.952,111.550 333.456,113.200 333.772 C 116.040 334.316,117.183 334.589,124.400 336.444 C 126.050 336.869,128.479 337.409,129.798 337.646 C 131.117 337.883,132.522 338.251,132.920 338.464 C 133.318 338.677,134.759 339.026,136.122 339.239 C 137.485 339.452,139.680 339.966,141.000 340.381 C 142.320 340.797,144.262 341.253,145.315 341.395 C 146.369 341.537,147.824 341.901,148.548 342.204 C 149.273 342.507,150.841 342.882,152.033 343.038 C 153.225 343.194,155.138 343.642,156.285 344.034 C 157.431 344.426,159.231 344.859,160.285 344.998 C 161.338 345.136,162.938 345.512,163.840 345.835 C 164.742 346.157,166.812 346.674,168.440 346.984 C 170.068 347.295,172.390 347.812,173.600 348.134 C 178.758 349.507,181.174 350.087,184.000 350.628 C 185.650 350.944,187.630 351.448,188.400 351.749 C 189.170 352.049,190.700 352.418,191.800 352.569 C 192.900 352.719,194.880 353.178,196.200 353.589 C 197.520 354.000,199.500 354.458,200.600 354.606 C 201.700 354.755,203.214 355.132,203.964 355.444 C 204.714 355.757,206.604 356.209,208.164 356.450 C 209.724 356.690,211.310 357.051,211.688 357.251 C 212.067 357.452,213.957 357.961,215.888 358.384 C 217.820 358.806,221.380 359.622,223.800 360.196 C 226.220 360.770,229.640 361.565,231.400 361.961 C 233.160 362.358,235.578 362.979,236.773 363.341 C 238.195 363.773,240.391 364.000,243.131 364.000 C 247.708 364.000,247.292 364.166,252.947 360.099 C 253.636 359.603,254.830 358.754,255.600 358.212 C 256.370 357.671,257.720 356.695,258.600 356.045 C 259.480 355.394,261.640 353.847,263.400 352.606 C 265.160 351.365,267.320 349.815,268.200 349.161 C 269.080 348.507,270.430 347.529,271.200 346.988 C 271.970 346.446,273.230 345.552,274.000 345.000 C 274.770 344.448,276.030 343.554,276.800 343.012 C 277.570 342.471,278.920 341.493,279.800 340.840 C 280.680 340.187,282.390 338.973,283.600 338.143 C 284.810 337.313,285.980 336.489,286.200 336.312 C 286.897 335.751,289.514 333.837,291.000 332.800 C 291.788 332.250,293.048 331.350,293.800 330.800 C 294.552 330.250,295.813 329.350,296.602 328.800 C 297.391 328.250,299.096 326.990,300.390 326.000 C 301.684 325.010,303.938 323.390,305.398 322.400 C 306.858 321.410,308.664 320.150,309.410 319.600 C 310.157 319.050,311.359 318.183,312.084 317.673 C 315.396 315.340,319.573 312.307,321.383 310.920 C 322.474 310.084,324.364 308.725,325.583 307.901 C 326.802 307.076,329.060 305.493,330.600 304.384 C 333.205 302.507,334.699 301.449,337.200 299.715 C 337.750 299.333,339.135 298.297,340.279 297.411 C 341.422 296.525,343.644 294.900,345.218 293.800 C 346.791 292.700,348.600 291.260,349.237 290.600 L 350.396 289.400 350.398 197.329 L 350.400 105.258 348.910 104.030 C 348.091 103.355,346.786 102.705,346.010 102.585 C 345.235 102.465,343.520 102.096,342.200 101.765 C 340.880 101.433,338.270 100.822,336.400 100.406 C 334.530 99.990,332.016 99.368,330.813 99.025 C 329.610 98.681,328.243 98.400,327.775 98.400 C 327.308 98.400,325.952 98.066,324.763 97.658 C 323.573 97.250,321.700 96.790,320.600 96.636 C 319.500 96.482,317.564 96.005,316.298 95.578 C 315.033 95.150,313.579 94.800,313.069 94.800 C 312.559 94.800,310.638 94.350,308.800 93.800 C 306.962 93.250,305.041 92.800,304.531 92.800 C 304.021 92.800,302.567 92.454,301.302 92.032 C 300.036 91.610,297.801 91.067,296.336 90.827 C 294.870 90.586,293.070 90.141,292.336 89.839 C 291.601 89.536,290.010 89.157,288.800 88.997 C 287.590 88.836,285.970 88.457,285.200 88.153 C 284.430 87.850,282.450 87.342,280.800 87.025 C 277.858 86.460,274.988 85.783,270.200 84.528 C 268.880 84.181,266.315 83.561,264.500 83.149 C 262.685 82.737,259.715 82.063,257.900 81.651 C 256.085 81.239,253.520 80.619,252.200 80.272 C 247.412 79.017,244.542 78.340,241.600 77.775 C 239.950 77.458,237.970 76.952,237.200 76.651 C 236.430 76.351,234.900 75.982,233.800 75.831 C 232.700 75.681,230.720 75.220,229.400 74.806 C 228.080 74.393,226.190 73.939,225.200 73.799 C 224.210 73.658,222.364 73.195,221.098 72.771 C 219.833 72.347,218.393 72.000,217.898 72.000 C 217.404 72.000,215.470 71.573,213.600 71.051 C 211.730 70.529,209.210 69.887,208.000 69.626 C 203.252 68.600,199.302 67.667,197.200 67.074 C 195.990 66.733,194.190 66.332,193.200 66.182 C 192.210 66.033,190.786 65.658,190.036 65.349 C 189.286 65.040,187.423 64.594,185.897 64.357 C 184.370 64.120,182.539 63.683,181.828 63.386 C 181.116 63.089,179.559 62.718,178.367 62.562 C 177.175 62.406,175.227 61.946,174.037 61.539 C 170.467 60.319,169.409 60.508,165.794 63.014 M177.800 69.207 C 179.120 69.613,181.010 70.061,182.000 70.201 C 182.990 70.342,184.836 70.805,186.102 71.229 C 187.367 71.653,188.798 72.000,189.281 72.000 C 189.764 72.000,191.788 72.434,193.780 72.964 C 199.875 74.586,202.475 75.213,205.600 75.815 C 207.250 76.133,209.230 76.643,210.000 76.949 C 210.770 77.255,212.390 77.638,213.600 77.800 C 214.810 77.962,216.430 78.343,217.200 78.647 C 217.970 78.950,219.950 79.458,221.600 79.775 C 224.288 80.292,225.648 80.603,231.400 82.018 C 232.280 82.235,234.170 82.685,235.600 83.019 C 238.181 83.623,240.113 84.102,242.800 84.806 C 243.570 85.008,245.235 85.372,246.500 85.615 C 249.368 86.166,249.798 87.684,247.500 89.151 C 246.785 89.607,245.640 90.390,244.956 90.890 C 244.272 91.391,243.192 92.152,242.556 92.583 C 241.568 93.252,240.552 94.007,238.600 95.523 C 238.380 95.694,237.210 96.513,236.000 97.343 C 234.790 98.173,233.080 99.387,232.200 100.040 C 231.320 100.693,229.970 101.671,229.200 102.212 C 228.430 102.754,227.170 103.648,226.400 104.200 C 225.630 104.752,224.301 105.697,223.446 106.301 C 222.592 106.906,221.512 107.670,221.046 108.000 C 220.581 108.330,219.100 109.410,217.755 110.400 C 216.410 111.390,214.904 112.470,214.409 112.800 C 213.424 113.457,211.220 115.077,209.505 116.405 C 206.923 118.404,205.764 118.295,192.000 114.756 C 190.350 114.331,187.965 113.799,186.701 113.572 C 185.436 113.345,183.816 112.921,183.101 112.629 C 182.385 112.337,180.900 111.974,179.800 111.822 C 178.700 111.670,176.396 111.108,174.679 110.573 C 172.963 110.038,171.022 109.600,170.367 109.600 C 169.711 109.600,168.521 109.327,167.723 108.994 C 166.925 108.660,165.023 108.194,163.497 107.957 C 161.970 107.720,160.154 107.290,159.460 107.001 C 158.767 106.712,157.300 106.355,156.200 106.206 C 155.100 106.058,153.339 105.664,152.286 105.331 C 151.233 104.999,148.803 104.375,146.886 103.945 C 138.812 102.136,136.888 101.681,134.800 101.088 C 133.590 100.744,131.749 100.348,130.709 100.208 C 127.777 99.814,127.801 98.348,130.776 96.200 C 131.691 95.540,133.053 94.550,133.803 94.000 C 134.553 93.450,135.812 92.550,136.600 92.000 C 137.388 91.450,138.648 90.550,139.400 90.000 C 140.152 89.450,141.415 88.550,142.207 88.000 C 143.000 87.450,143.862 86.811,144.124 86.581 C 144.386 86.350,145.590 85.484,146.800 84.655 C 148.010 83.826,149.720 82.613,150.600 81.960 C 151.480 81.307,152.830 80.329,153.600 79.788 C 154.370 79.246,155.630 78.352,156.400 77.800 C 157.170 77.248,158.430 76.354,159.200 75.812 C 159.970 75.271,161.320 74.291,162.200 73.636 C 170.231 67.654,171.544 67.282,177.800 69.207 M168.014 77.174 C 166.476 80.047,167.955 84.800,170.386 84.800 C 172.159 84.800,173.269 79.930,172.157 77.033 C 171.782 76.054,168.554 76.164,168.014 77.174 M264.698 89.971 C 265.964 90.395,267.810 90.858,268.800 90.999 C 269.790 91.139,271.680 91.590,273.000 92.000 C 274.320 92.410,276.210 92.861,277.200 93.001 C 278.190 93.142,280.036 93.605,281.302 94.029 C 282.567 94.453,284.020 94.800,284.529 94.800 C 285.038 94.800,286.432 95.096,287.627 95.459 C 288.822 95.821,291.240 96.442,293.000 96.839 C 297.275 97.802,304.219 99.443,306.200 99.957 C 308.181 100.472,312.384 101.472,316.600 102.431 C 318.360 102.832,320.784 103.439,321.987 103.780 C 323.190 104.121,324.557 104.400,325.025 104.400 C 325.492 104.400,326.848 104.734,328.037 105.142 C 329.227 105.550,331.100 106.009,332.200 106.163 C 338.634 107.063,338.992 108.355,333.800 111.942 C 331.393 113.605,327.271 116.497,326.020 117.400 C 325.411 117.840,324.392 118.547,323.756 118.972 C 323.120 119.397,322.420 119.937,322.200 120.172 C 321.980 120.407,320.724 121.320,319.410 122.200 C 318.095 123.080,316.717 124.070,316.347 124.400 C 315.977 124.730,314.443 125.861,312.937 126.914 C 311.432 127.967,308.940 129.709,307.400 130.786 C 305.860 131.862,303.610 133.483,302.400 134.389 C 295.180 139.792,294.679 139.874,285.658 137.164 C 284.260 136.744,282.685 136.400,282.159 136.400 C 281.634 136.400,280.167 136.053,278.902 135.629 C 277.636 135.205,275.790 134.742,274.800 134.601 C 273.810 134.461,271.920 134.007,270.600 133.594 C 269.280 133.180,267.300 132.720,266.200 132.572 C 265.100 132.423,263.570 132.032,262.800 131.702 C 262.030 131.372,260.050 130.871,258.400 130.588 C 256.750 130.305,254.410 129.805,253.200 129.478 C 250.374 128.712,246.245 127.703,242.200 126.789 C 240.440 126.392,238.280 125.878,237.400 125.647 C 236.520 125.416,234.630 124.954,233.200 124.619 C 231.770 124.285,229.880 123.835,229.000 123.618 C 224.240 122.447,221.951 121.909,219.661 121.422 C 215.566 120.552,215.816 119.800,221.528 115.800 C 225.532 112.996,229.816 109.923,232.400 108.002 C 237.442 104.253,241.888 101.106,245.498 98.731 C 246.057 98.363,246.624 97.913,246.757 97.731 C 246.891 97.549,248.080 96.682,249.400 95.805 C 250.720 94.928,251.896 94.080,252.014 93.920 C 254.576 90.449,260.563 88.585,264.698 89.971 M168.500 93.212 C 166.925 93.846,167.149 99.746,168.780 100.590 C 171.634 102.065,172.400 101.255,172.400 96.763 C 172.400 92.707,171.590 91.970,168.500 93.212 M256.414 98.374 C 255.805 99.511,255.894 104.503,256.539 105.384 C 257.069 106.109,260.009 106.125,260.727 105.407 C 261.494 104.639,261.274 99.274,260.442 98.442 C 259.332 97.332,256.993 97.292,256.414 98.374 M127.800 106.187 C 130.220 106.771,133.780 107.594,135.712 108.016 C 137.643 108.439,139.533 108.948,139.912 109.149 C 140.290 109.349,141.876 109.710,143.436 109.950 C 144.996 110.191,146.886 110.643,147.636 110.956 C 148.386 111.268,149.900 111.645,151.000 111.794 C 152.100 111.942,154.080 112.397,155.400 112.804 C 156.720 113.212,158.610 113.661,159.600 113.801 C 162.189 114.170,165.975 115.498,167.600 116.608 C 168.828 117.447,169.443 117.562,172.600 117.545 C 175.139 117.532,176.966 117.766,178.800 118.338 C 180.230 118.784,182.565 119.356,183.990 119.608 C 185.414 119.861,186.892 120.235,187.275 120.440 C 187.658 120.645,189.413 121.065,191.175 121.372 C 192.937 121.680,195.416 122.406,196.684 122.987 L 198.990 124.043 197.195 125.219 C 196.208 125.866,194.410 127.124,193.200 128.015 C 191.990 128.906,190.370 130.077,189.600 130.616 C 188.830 131.156,187.570 132.048,186.800 132.600 C 186.030 133.152,184.701 134.097,183.846 134.701 C 180.917 136.772,180.595 137.004,178.000 138.899 C 176.570 139.944,175.209 140.955,174.975 141.145 C 173.943 141.986,172.744 142.400,171.326 142.405 C 168.523 142.415,168.084 142.707,167.416 145.003 C 166.952 146.602,166.482 147.324,165.500 147.950 C 164.785 148.407,163.640 149.190,162.956 149.690 C 162.272 150.191,161.195 150.960,160.563 151.400 C 159.931 151.840,159.136 152.470,158.797 152.800 C 157.080 154.471,155.314 154.998,153.310 154.434 C 152.259 154.139,150.410 153.735,149.200 153.536 C 147.990 153.337,145.964 152.820,144.698 152.387 C 143.433 151.954,141.980 151.600,141.471 151.600 C 140.962 151.600,139.568 151.304,138.373 150.941 C 136.257 150.300,133.729 149.700,126.075 148.026 C 124.026 147.577,121.961 146.938,121.486 146.605 C 121.011 146.272,119.891 146.000,118.998 146.000 C 118.105 146.000,116.390 145.716,115.187 145.370 C 113.984 145.023,111.650 144.483,110.000 144.169 C 108.350 143.855,106.363 143.345,105.585 143.036 C 104.807 142.727,103.277 142.353,102.185 142.205 C 101.093 142.058,99.120 141.603,97.800 141.196 C 96.480 140.788,94.590 140.339,93.600 140.199 C 92.610 140.058,90.764 139.595,89.498 139.171 C 88.233 138.747,86.793 138.399,86.298 138.398 C 85.401 138.395,77.482 136.221,76.772 135.783 C 76.232 135.449,79.487 132.826,85.439 128.800 C 86.903 127.810,88.396 126.730,88.757 126.400 C 89.118 126.070,89.931 125.440,90.563 125.000 C 91.195 124.560,92.272 123.794,92.956 123.299 C 93.640 122.803,94.830 121.955,95.600 121.416 C 96.370 120.876,98.260 119.528,99.800 118.421 C 101.340 117.314,103.590 115.741,104.800 114.926 C 106.010 114.110,107.810 112.797,108.800 112.006 C 109.790 111.216,111.590 109.887,112.800 109.053 C 114.010 108.219,115.810 106.925,116.800 106.177 C 118.997 104.518,120.884 104.520,127.800 106.187 M117.289 113.823 C 116.498 114.377,116.400 114.793,116.400 117.615 C 116.400 121.149,116.646 121.416,119.645 121.129 L 121.000 121.000 121.117 117.661 C 121.270 113.289,119.946 111.961,117.289 113.823 M256.440 114.726 C 255.883 115.766,255.865 120.601,256.414 121.626 C 256.993 122.708,259.332 122.668,260.442 121.558 C 261.282 120.718,261.491 115.358,260.713 114.580 C 259.940 113.806,256.876 113.911,256.440 114.726 M342.967 114.243 C 344.359 114.777,343.811 196.800,342.416 196.800 C 342.248 196.800,341.463 197.295,340.671 197.900 C 339.880 198.505,338.641 199.417,337.916 199.927 C 336.029 201.256,330.733 205.093,329.857 205.767 C 329.448 206.081,327.861 207.207,326.330 208.269 C 324.800 209.331,322.937 210.650,322.190 211.200 C 321.444 211.750,320.187 212.650,319.398 213.200 C 318.609 213.750,316.869 215.055,315.531 216.100 C 314.193 217.145,312.957 218.000,312.786 218.000 C 312.614 218.000,311.510 218.765,310.332 219.700 C 309.154 220.635,307.652 221.772,306.995 222.226 C 306.338 222.680,304.564 223.910,303.054 224.959 C 301.439 226.081,300.160 226.720,299.950 226.510 C 299.747 226.307,299.637 218.203,299.696 207.776 L 299.800 189.400 301.075 188.800 C 303.753 187.539,303.999 184.729,301.500 183.938 L 299.800 183.400 299.696 163.980 L 299.592 144.559 301.216 143.380 C 302.108 142.731,303.453 141.750,304.203 141.200 C 304.953 140.650,306.159 139.785,306.884 139.277 C 311.159 136.279,314.384 133.965,317.023 132.000 C 317.762 131.450,319.012 130.550,319.800 130.000 C 320.588 129.450,321.848 128.550,322.600 128.000 C 323.352 127.450,324.612 126.550,325.400 126.000 C 326.188 125.450,327.435 124.550,328.171 124.000 C 328.907 123.450,329.918 122.730,330.417 122.400 C 330.917 122.070,332.602 120.867,334.163 119.727 C 335.723 118.587,337.599 117.237,338.332 116.727 C 339.064 116.217,340.144 115.401,340.732 114.913 C 341.911 113.933,342.051 113.891,342.967 114.243 M213.200 126.583 C 214.630 126.936,216.520 127.412,217.400 127.641 C 219.436 128.172,226.782 129.903,229.400 130.469 C 230.500 130.707,232.930 131.329,234.800 131.851 C 236.670 132.373,238.604 132.800,239.098 132.800 C 239.593 132.800,241.033 133.150,242.298 133.578 C 243.564 134.005,245.500 134.482,246.600 134.636 C 247.700 134.790,249.573 135.250,250.763 135.658 C 251.952 136.066,253.357 136.400,253.885 136.400 C 254.450 136.400,255.315 136.914,255.987 137.650 C 257.119 138.890,257.154 138.899,260.065 138.647 C 261.679 138.508,263.630 138.571,264.400 138.787 C 265.170 139.003,266.970 139.464,268.400 139.811 C 269.830 140.159,272.080 140.726,273.400 141.072 C 274.720 141.419,277.240 142.020,279.000 142.408 C 287.634 144.315,287.993 144.583,284.938 146.856 C 283.652 147.813,282.510 148.691,282.400 148.807 C 282.290 148.923,281.680 149.374,281.044 149.809 C 280.408 150.244,279.328 151.006,278.644 151.501 C 277.960 151.997,276.770 152.852,276.000 153.400 C 275.230 153.948,273.970 154.848,273.200 155.400 C 272.430 155.952,271.170 156.845,270.400 157.384 C 269.630 157.924,267.740 159.278,266.200 160.393 C 262.683 162.940,261.245 163.600,259.213 163.600 C 257.253 163.600,256.000 164.686,256.000 166.384 C 256.000 167.622,255.962 167.670,253.434 169.614 C 251.767 170.896,251.113 171.124,248.638 171.293 C 247.205 171.391,247.031 171.532,246.535 173.000 C 245.465 176.162,243.394 176.745,239.600 174.953 C 238.390 174.381,236.500 173.776,235.400 173.607 L 233.400 173.300 235.238 173.250 C 237.335 173.193,238.270 172.434,238.470 170.626 C 238.618 169.287,238.055 168.901,234.400 167.834 L 232.200 167.191 231.300 168.218 C 230.742 168.855,230.400 169.765,230.400 170.615 C 230.400 172.873,227.922 172.984,223.203 170.937 L 220.860 169.921 221.628 168.661 C 223.109 166.232,222.595 165.157,219.584 164.384 C 215.024 163.214,214.771 163.312,214.410 166.400 L 214.200 168.200 212.364 168.319 C 211.169 168.397,209.772 168.135,208.364 167.568 C 207.174 167.090,205.390 166.467,204.400 166.185 C 202.953 165.772,202.816 165.665,203.700 165.636 C 205.689 165.571,207.459 162.302,205.994 161.397 C 205.615 161.162,200.242 159.600,199.814 159.600 C 199.240 159.600,198.255 161.879,198.333 163.029 C 198.470 165.063,196.787 165.213,191.919 163.598 L 188.103 162.333 189.052 161.385 C 190.334 160.102,190.360 157.905,189.100 157.312 C 184.308 155.057,181.723 155.819,182.079 159.383 C 182.257 161.167,180.269 161.222,175.312 159.571 C 171.512 158.305,171.482 158.284,172.553 157.723 C 173.600 157.174,174.400 155.796,174.400 154.542 C 174.400 154.208,173.700 153.661,172.844 153.324 C 171.356 152.740,171.318 152.682,171.994 152.006 C 172.382 151.618,172.768 151.132,172.850 150.927 C 172.933 150.721,173.990 149.877,175.200 149.050 C 176.410 148.224,178.120 147.013,179.000 146.360 C 179.880 145.707,181.230 144.729,182.000 144.188 C 182.770 143.646,184.030 142.752,184.800 142.200 C 185.570 141.648,186.899 140.703,187.754 140.099 C 188.608 139.494,189.688 138.730,190.154 138.400 C 190.619 138.070,192.100 136.990,193.445 136.000 C 194.790 135.010,196.300 133.930,196.801 133.600 C 197.302 133.270,198.181 132.633,198.756 132.185 C 199.330 131.736,200.250 131.059,200.800 130.680 C 203.051 129.130,204.685 127.964,206.200 126.827 C 207.982 125.491,208.672 125.467,213.200 126.583 M168.489 126.623 C 167.698 127.177,167.600 127.593,167.600 130.409 C 167.600 134.015,168.023 134.547,170.717 134.323 L 172.200 134.200 172.316 130.660 C 172.467 126.078,171.190 124.731,168.489 126.623 M117.023 130.489 C 115.098 133.236,116.619 138.119,119.338 137.921 L 121.000 137.800 121.119 134.601 C 121.288 130.023,121.127 129.600,119.215 129.600 C 118.046 129.600,117.486 129.827,117.023 130.489 M77.800 143.205 C 79.120 143.607,81.100 144.058,82.200 144.206 C 83.300 144.355,84.814 144.732,85.564 145.044 C 86.314 145.357,88.177 145.806,89.703 146.043 C 91.230 146.280,93.046 146.710,93.740 146.999 C 94.433 147.288,95.900 147.645,97.000 147.794 C 98.100 147.942,100.080 148.400,101.400 148.811 C 102.720 149.222,104.700 149.680,105.800 149.828 C 106.900 149.977,108.385 150.337,109.101 150.629 C 109.816 150.921,111.406 151.345,112.634 151.572 C 113.966 151.819,115.350 152.392,116.064 152.993 C 117.636 154.316,118.993 154.620,120.966 154.094 C 122.287 153.741,122.980 153.797,124.790 154.399 C 126.005 154.804,128.247 155.341,129.771 155.592 C 131.296 155.843,132.876 156.227,133.284 156.445 C 133.692 156.663,135.454 157.093,137.200 157.400 C 138.946 157.707,140.714 158.140,141.129 158.362 C 141.544 158.584,143.125 158.963,144.642 159.203 C 147.402 159.639,151.759 160.999,152.700 161.717 C 153.502 162.328,153.424 243.716,152.621 244.382 C 151.894 244.986,148.287 244.597,145.200 243.581 C 143.990 243.183,142.190 242.742,141.200 242.601 C 140.210 242.461,138.320 242.013,137.000 241.608 C 135.680 241.202,133.790 240.758,132.800 240.620 C 131.810 240.482,129.920 240.026,128.600 239.606 C 127.280 239.187,125.390 238.739,124.400 238.610 C 121.540 238.239,121.478 238.139,121.226 233.530 L 121.000 229.400 119.517 229.277 C 117.002 229.068,116.400 229.666,116.400 232.370 C 116.400 235.699,115.552 236.712,113.372 235.987 C 112.507 235.699,110.360 235.144,108.600 234.752 C 99.868 232.809,98.442 232.469,96.427 231.859 C 95.232 231.496,93.838 231.200,93.329 231.200 C 92.820 231.200,91.367 230.846,90.102 230.414 C 88.836 229.982,86.559 229.434,85.042 229.197 C 83.525 228.960,81.944 228.584,81.529 228.362 C 81.114 228.140,79.319 227.702,77.540 227.389 C 75.668 227.060,73.567 226.388,72.551 225.792 L 70.796 224.764 70.898 183.894 L 71.000 143.024 71.976 142.537 C 73.067 141.993,74.285 142.133,77.800 143.205 M256.243 148.233 C 254.700 152.253,256.423 156.051,259.465 155.334 L 261.000 154.972 261.118 151.794 C 261.217 149.149,261.120 148.531,260.542 148.108 C 259.521 147.361,256.544 147.448,256.243 148.233 M292.302 191.638 L 292.404 232.264 291.113 233.432 C 290.402 234.074,289.432 234.870,288.957 235.200 C 288.482 235.530,286.857 236.655,285.346 237.701 C 280.603 240.983,277.607 243.128,275.584 244.690 C 274.508 245.520,272.406 247.061,270.914 248.114 C 269.421 249.167,266.940 250.926,265.400 252.023 C 261.667 254.683,261.447 254.598,261.200 250.396 L 261.000 247.000 259.118 246.636 C 256.376 246.106,256.000 246.562,256.000 250.420 C 256.000 254.178,256.422 254.776,259.129 254.854 C 260.158 254.884,260.585 254.988,260.078 255.085 C 259.572 255.182,258.995 255.687,258.798 256.206 C 258.600 256.726,258.025 257.371,257.519 257.640 C 257.014 257.908,255.656 258.895,254.502 259.832 C 251.989 261.874,249.853 262.708,248.985 261.987 C 248.177 261.317,248.094 182.138,248.900 181.124 C 249.175 180.778,250.300 179.882,251.400 179.134 C 253.595 177.640,257.385 174.923,260.800 172.395 C 264.584 169.594,268.146 167.046,270.008 165.811 C 270.994 165.157,272.262 164.257,272.826 163.811 C 273.390 163.365,274.290 162.688,274.826 162.306 C 275.362 161.924,276.970 160.754,278.400 159.706 C 279.830 158.658,281.520 157.440,282.156 157.000 C 282.792 156.560,283.872 155.794,284.556 155.299 C 289.883 151.438,290.935 150.781,291.600 150.902 C 292.128 150.998,292.212 155.894,292.302 191.638 M117.300 163.203 C 116.473 163.544,116.400 163.832,116.400 166.773 C 116.400 170.419,116.817 170.947,119.517 170.723 L 121.000 170.600 121.000 166.800 L 121.000 163.000 119.600 162.916 C 118.830 162.869,117.795 162.999,117.300 163.203 M165.315 164.259 C 166.016 164.622,167.086 165.450,167.693 166.100 C 168.713 167.191,168.941 167.260,170.698 167.007 C 173.726 166.571,176.826 166.720,179.200 167.416 C 180.410 167.771,182.750 168.317,184.400 168.631 C 186.050 168.945,188.030 169.448,188.800 169.749 C 189.570 170.049,191.100 170.418,192.200 170.569 C 193.300 170.719,195.280 171.180,196.600 171.594 C 197.920 172.007,199.810 172.461,200.800 172.601 C 201.790 172.742,203.636 173.205,204.902 173.629 C 206.167 174.053,207.621 174.400,208.131 174.400 C 208.641 174.400,210.562 174.850,212.400 175.400 C 214.238 175.950,216.159 176.400,216.669 176.400 C 217.179 176.400,218.633 176.750,219.898 177.178 C 221.164 177.605,223.100 178.082,224.200 178.236 C 225.300 178.390,227.173 178.850,228.363 179.258 C 229.552 179.666,230.908 180.000,231.375 180.000 C 231.843 180.000,233.210 180.278,234.413 180.617 C 235.616 180.956,237.496 181.454,238.592 181.724 C 241.810 182.517,241.587 179.353,241.594 224.438 C 241.601 270.494,241.899 266.865,238.233 265.349 L 236.433 264.604 237.373 263.802 C 238.376 262.946,239.033 260.591,238.381 260.189 C 237.509 259.649,232.404 258.424,231.875 258.626 C 231.155 258.903,230.400 260.542,230.400 261.829 C 230.400 264.051,225.669 263.743,221.687 261.260 C 220.879 260.756,220.841 260.617,221.356 260.046 C 223.441 257.731,222.356 255.946,218.410 255.202 C 215.072 254.572,214.400 254.907,214.400 257.200 C 214.400 260.020,212.494 260.259,206.956 258.132 C 203.716 256.887,203.591 256.770,204.894 256.195 C 207.529 255.032,206.707 252.519,203.365 251.519 C 199.314 250.306,198.274 250.808,198.223 254.000 C 198.192 255.924,195.911 256.128,191.800 254.575 C 190.260 253.993,188.370 253.376,187.600 253.204 L 186.200 252.892 187.556 252.846 C 191.288 252.719,190.943 248.589,187.123 247.658 C 183.077 246.671,182.361 246.999,182.010 250.000 L 181.800 251.800 180.000 251.772 C 178.322 251.745,172.014 249.688,172.004 249.164 C 172.002 249.035,172.433 248.731,172.963 248.490 C 175.678 247.253,173.112 241.667,170.050 242.152 C 168.231 242.440,167.357 243.321,166.584 245.648 C 165.693 248.331,162.725 248.880,160.470 246.779 L 159.600 245.969 159.600 205.906 L 159.600 165.844 160.675 164.722 C 161.921 163.421,163.408 163.273,165.315 164.259 M142.693 171.602 C 141.432 172.505,140.400 173.297,140.400 173.362 C 140.400 174.209,141.445 175.996,142.165 176.381 C 143.746 177.228,148.000 174.618,148.000 172.801 C 148.000 169.910,145.762 169.404,142.693 171.602 M263.462 175.931 C 261.362 178.252,262.938 180.127,267.433 180.655 C 271.934 181.185,272.254 177.068,267.800 175.932 C 264.310 175.042,264.267 175.042,263.462 175.931 M168.300 176.422 C 167.727 176.764,167.600 177.418,167.600 180.030 C 167.600 183.577,168.138 184.197,170.977 183.920 L 172.200 183.800 172.200 180.000 L 172.200 176.200 170.600 176.102 C 169.720 176.048,168.685 176.192,168.300 176.422 M131.400 179.827 C 127.957 181.611,127.101 183.799,129.175 185.518 C 130.498 186.614,135.200 183.878,135.200 182.012 C 135.200 179.610,133.597 178.688,131.400 179.827 M279.239 179.927 C 278.348 181.592,278.681 183.558,279.900 183.832 C 281.729 184.244,284.159 184.836,284.879 185.044 C 285.743 185.294,286.898 183.183,286.724 181.673 C 286.512 179.835,280.090 178.337,279.239 179.927 M117.100 180.146 C 116.541 180.579,116.400 181.308,116.400 183.758 L 116.400 186.827 117.866 187.692 C 119.197 188.477,119.263 188.595,118.588 188.978 C 118.180 189.210,117.151 190.030,116.302 190.800 L 114.758 192.200 115.475 193.600 C 115.967 194.562,116.230 196.127,116.314 198.600 C 116.482 203.542,118.338 205.877,120.604 203.996 C 121.583 203.185,121.432 197.202,120.400 195.891 C 119.313 194.509,119.380 194.209,120.987 193.261 C 122.777 192.205,123.208 190.686,122.063 189.467 C 121.340 188.697,121.214 187.996,121.114 184.190 L 121.000 179.800 119.400 179.702 C 118.517 179.648,117.486 179.847,117.100 180.146 M256.243 181.033 C 254.526 185.506,257.208 189.951,260.311 187.777 C 261.337 187.059,261.648 181.808,260.720 180.880 C 259.983 180.143,256.539 180.260,256.243 181.033 M312.400 187.078 C 311.448 187.417,310.800 188.460,310.800 189.653 C 310.800 190.996,311.109 191.203,314.400 192.069 C 317.842 192.976,317.830 192.977,318.382 191.643 C 319.215 189.631,318.800 188.264,317.200 187.754 C 315.232 187.126,313.107 186.827,312.400 187.078 M328.046 191.357 C 326.949 192.532,326.607 194.142,327.327 194.739 C 327.910 195.223,331.944 196.400,333.020 196.400 C 334.805 196.400,335.988 192.850,334.473 192.039 C 332.248 190.848,328.856 190.489,328.046 191.357 M168.262 193.131 C 165.607 196.066,169.171 203.069,171.920 200.320 C 172.420 199.820,172.603 194.196,172.157 193.033 C 171.808 192.123,169.112 192.192,168.262 193.131 M257.400 197.183 L 256.200 197.406 256.098 200.603 C 255.975 204.437,256.187 204.842,258.341 204.871 C 260.818 204.906,261.200 204.388,261.200 201.000 C 261.200 197.424,260.405 196.625,257.400 197.183 M104.871 198.782 C 102.445 200.699,102.258 200.979,102.569 202.218 C 103.231 204.857,105.426 204.840,108.379 202.172 C 110.322 200.416,110.402 199.609,108.769 198.236 C 107.199 196.914,107.240 196.909,104.871 198.782 M343.560 245.514 C 343.538 267.451,343.403 285.810,343.260 286.311 C 343.016 287.166,341.578 288.441,338.199 290.800 C 337.412 291.350,336.152 292.250,335.400 292.800 C 334.648 293.350,333.388 294.250,332.600 294.800 C 331.114 295.837,328.497 297.751,327.800 298.312 C 327.580 298.489,326.410 299.313,325.200 300.143 C 323.990 300.973,322.280 302.187,321.400 302.840 C 320.520 303.493,319.170 304.471,318.400 305.012 C 317.630 305.554,316.370 306.448,315.600 307.000 C 314.830 307.552,313.501 308.497,312.646 309.101 C 311.792 309.706,310.712 310.470,310.246 310.800 C 309.781 311.130,308.300 312.210,306.955 313.200 C 305.610 314.190,304.100 315.270,303.599 315.600 C 303.098 315.930,302.177 316.618,301.553 317.129 C 299.599 318.725,299.600 318.734,299.600 299.205 C 299.600 279.782,299.617 279.600,301.419 279.600 C 303.751 279.600,303.651 275.606,301.300 274.862 L 299.600 274.324 299.600 255.029 L 299.600 235.734 301.100 234.555 C 301.925 233.907,303.050 233.074,303.600 232.705 C 304.150 232.335,305.590 231.305,306.800 230.416 C 308.010 229.527,309.706 228.328,310.569 227.751 C 311.431 227.175,312.331 226.543,312.569 226.347 C 313.210 225.817,315.769 223.938,317.400 222.800 C 318.188 222.250,319.448 221.350,320.200 220.800 C 320.952 220.250,322.212 219.350,323.000 218.800 C 323.788 218.250,325.038 217.350,325.777 216.800 C 329.016 214.389,329.551 214.004,334.400 210.589 C 335.170 210.047,336.430 209.152,337.200 208.600 C 337.970 208.048,339.260 207.155,340.066 206.615 C 340.873 206.074,341.649 205.445,341.791 205.215 C 341.969 204.926,342.287 204.926,342.824 205.213 C 343.584 205.620,343.599 206.432,343.560 245.514 M91.800 208.053 C 89.490 209.782,89.192 210.977,90.696 212.481 L 91.889 213.673 93.444 212.873 C 96.428 211.339,97.464 209.843,96.681 208.201 C 95.808 206.371,94.115 206.319,91.800 208.053 M168.300 209.222 C 166.927 210.042,167.304 215.826,168.780 216.590 C 171.641 218.069,172.483 217.046,172.316 212.296 L 172.200 209.000 170.600 208.902 C 169.720 208.848,168.685 208.992,168.300 209.222 M117.100 212.822 C 116.535 213.159,116.400 213.805,116.400 216.158 C 116.400 219.682,117.021 220.527,119.461 220.326 L 121.000 220.200 121.000 216.400 L 121.000 212.600 119.400 212.502 C 118.520 212.448,117.485 212.592,117.100 212.822 M256.423 214.358 C 256.160 214.849,256.016 216.519,256.083 218.305 L 256.200 221.400 257.762 221.528 C 260.992 221.792,261.200 221.581,261.200 218.041 C 261.200 214.474,260.930 214.049,258.455 213.717 C 257.134 213.539,256.805 213.643,256.423 214.358 M81.600 215.872 C 78.023 217.117,76.144 220.121,77.931 221.738 C 80.678 224.224,85.788 219.054,83.307 216.300 C 82.642 215.562,82.554 215.540,81.600 215.872 M168.100 225.856 C 167.005 226.318,167.453 232.604,168.619 233.136 C 171.579 234.485,172.470 233.521,172.317 229.139 L 172.200 225.800 170.400 225.722 C 169.410 225.679,168.375 225.739,168.100 225.856 M256.414 230.774 C 255.805 231.911,255.894 236.903,256.539 237.784 C 257.069 238.509,260.009 238.525,260.727 237.807 C 261.494 237.039,261.274 231.674,260.442 230.842 C 259.332 229.732,256.993 229.692,256.414 230.774 M77.230 234.016 C 77.641 234.236,79.557 234.761,81.488 235.184 C 83.420 235.606,86.980 236.422,89.400 236.996 C 91.820 237.570,95.240 238.368,97.000 238.769 C 98.760 239.170,101.280 239.779,102.600 240.122 C 103.920 240.465,105.810 240.930,106.800 241.156 C 107.790 241.381,109.680 241.836,111.000 242.166 C 112.320 242.496,114.070 242.871,114.888 242.999 C 115.707 243.127,116.927 243.695,117.599 244.261 C 118.696 245.184,119.041 245.262,120.950 245.024 C 122.465 244.834,123.528 244.936,124.639 245.378 C 125.498 245.719,127.550 246.256,129.200 246.572 C 132.040 247.116,133.183 247.389,140.400 249.244 C 142.050 249.669,144.390 250.195,145.600 250.414 C 146.810 250.632,148.970 251.214,150.400 251.706 L 153.000 252.601 153.104 270.072 C 153.222 289.810,153.466 288.386,150.065 287.811 C 147.473 287.373,145.733 290.747,148.000 291.816 C 148.550 292.075,149.900 292.717,151.000 293.243 L 153.000 294.200 153.111 314.000 C 153.172 324.890,153.117 334.231,152.989 334.758 C 152.698 335.955,148.144 335.774,144.310 334.413 C 143.050 333.966,141.597 333.600,141.080 333.600 C 140.564 333.600,138.638 333.150,136.800 332.600 C 134.962 332.050,133.041 331.600,132.531 331.600 C 132.021 331.600,130.567 331.253,129.302 330.829 C 128.036 330.405,126.190 329.942,125.200 329.801 C 124.210 329.661,122.320 329.212,121.000 328.804 C 119.680 328.397,117.700 327.942,116.600 327.794 C 115.500 327.645,113.986 327.268,113.236 326.956 C 112.486 326.643,110.623 326.194,109.097 325.957 C 107.570 325.720,105.754 325.290,105.060 325.001 C 104.367 324.712,102.900 324.355,101.800 324.206 C 100.700 324.058,98.900 323.650,97.800 323.299 C 96.700 322.949,94.315 322.334,92.500 321.931 C 86.045 320.501,82.568 319.694,80.200 319.076 C 78.880 318.732,76.763 318.245,75.495 317.995 C 74.140 317.728,72.698 317.126,71.995 316.535 L 70.800 315.529 70.800 274.784 C 70.800 236.411,70.841 234.015,71.500 233.608 C 72.287 233.122,76.062 233.391,77.230 234.016 M292.400 282.395 C 292.400 310.149,292.268 322.643,291.969 323.281 C 291.454 324.377,287.009 327.807,278.600 333.600 C 274.944 336.118,270.553 339.287,268.235 341.080 C 267.154 341.916,265.804 342.851,265.235 343.158 C 264.666 343.465,264.110 343.826,264.000 343.960 C 263.674 344.358,260.762 346.509,258.800 347.800 C 257.083 348.930,254.040 351.153,253.600 351.598 C 252.658 352.550,249.392 354.406,248.953 354.237 C 248.493 354.061,248.400 350.924,248.400 335.662 C 248.400 315.982,248.316 316.769,250.468 316.256 C 252.420 315.790,252.196 311.600,250.219 311.600 C 248.435 311.600,248.400 311.266,248.400 294.025 C 248.400 278.383,248.433 277.666,249.190 276.704 C 249.975 275.706,249.975 275.693,249.196 274.795 C 248.432 273.914,248.457 271.987,249.236 271.675 C 249.408 271.607,250.278 271.022,251.171 270.375 C 253.203 268.903,254.697 268.857,255.794 270.233 C 256.860 271.571,258.712 270.938,259.078 269.112 C 259.203 268.487,259.731 267.640,260.252 267.230 C 260.805 266.796,261.200 266.061,261.200 265.468 C 261.200 263.572,261.946 262.478,264.276 260.959 C 265.554 260.125,267.410 258.784,268.400 257.977 C 269.390 257.171,270.785 256.211,271.500 255.845 C 272.215 255.479,272.800 255.033,272.800 254.854 C 272.800 254.675,273.205 254.316,273.700 254.057 C 274.195 253.798,275.320 253.043,276.200 252.379 C 277.080 251.716,278.430 250.729,279.200 250.188 C 279.970 249.646,281.230 248.752,282.000 248.200 C 282.770 247.648,284.030 246.750,284.800 246.204 C 285.570 245.658,287.280 244.422,288.600 243.458 C 292.781 240.403,292.400 236.495,292.400 282.395 M117.289 246.223 C 115.853 247.229,115.953 252.868,117.419 253.536 C 120.346 254.870,121.200 254.114,121.200 250.190 C 121.200 245.477,120.037 244.298,117.289 246.223 M164.486 254.979 C 165.429 255.297,167.393 255.747,168.851 255.979 C 170.309 256.210,172.109 256.650,172.851 256.955 C 173.593 257.261,175.190 257.643,176.400 257.803 C 177.610 257.964,179.230 258.345,180.000 258.651 C 180.770 258.957,182.750 259.467,184.400 259.785 C 187.525 260.387,190.125 261.014,196.220 262.636 C 198.212 263.166,200.236 263.600,200.719 263.600 C 201.202 263.600,202.633 263.947,203.898 264.371 C 205.164 264.795,207.010 265.258,208.000 265.399 C 208.990 265.539,210.880 265.988,212.200 266.396 C 213.520 266.803,215.493 267.258,216.585 267.405 C 217.677 267.553,219.207 267.927,219.985 268.236 C 220.763 268.545,222.750 269.058,224.400 269.375 C 227.285 269.930,228.798 270.283,235.800 272.037 C 240.873 273.308,240.948 273.341,241.234 274.404 C 241.950 277.066,241.639 355.464,240.909 356.346 L 240.200 357.201 236.400 356.410 C 234.310 355.975,231.716 355.345,230.636 355.010 C 229.556 354.674,228.252 354.400,227.738 354.400 C 227.224 354.400,225.767 354.046,224.502 353.614 C 223.236 353.182,221.007 352.642,219.549 352.414 C 218.091 352.187,216.291 351.750,215.549 351.445 C 214.807 351.139,213.210 350.757,212.000 350.597 C 210.790 350.436,209.170 350.057,208.400 349.753 C 207.630 349.450,205.650 348.947,204.000 348.635 C 202.350 348.323,200.010 347.801,198.800 347.475 C 195.000 346.450,191.192 345.542,181.100 343.251 C 179.285 342.839,176.720 342.219,175.400 341.872 C 170.617 340.618,167.743 339.941,164.800 339.374 C 163.150 339.057,161.350 338.463,160.800 338.055 L 159.800 337.314 159.698 297.053 L 159.596 256.792 160.898 255.608 C 162.427 254.217,162.297 254.240,164.486 254.979 M219.900 260.676 C 219.515 260.776,218.885 260.776,218.500 260.676 C 218.115 260.575,218.430 260.493,219.200 260.493 C 219.970 260.493,220.285 260.575,219.900 260.676 M142.533 262.800 C 140.196 264.594,140.070 265.820,142.072 267.314 C 144.595 269.198,149.587 263.960,147.269 261.862 C 146.116 260.819,144.765 261.087,142.533 262.800 M117.023 262.889 C 115.183 265.515,116.586 270.400,119.180 270.400 C 121.050 270.400,121.200 270.087,121.200 266.200 C 121.200 262.313,121.050 262.000,119.180 262.000 C 118.048 262.000,117.482 262.233,117.023 262.889 M263.604 266.888 C 261.303 269.357,263.802 271.963,268.500 271.995 C 270.161 272.007,271.668 268.584,270.358 267.774 C 268.605 266.691,264.312 266.128,263.604 266.888 M129.828 272.059 C 127.789 273.854,127.622 274.955,129.154 276.517 C 130.465 277.855,135.200 274.966,135.200 272.828 C 135.200 270.056,132.537 269.674,129.828 272.059 M279.327 270.852 C 278.779 271.519,278.523 273.628,278.913 274.260 C 279.472 275.164,285.211 276.160,285.899 275.472 C 286.981 274.390,286.768 271.912,285.542 271.313 C 283.861 270.493,279.866 270.197,279.327 270.852 M311.286 278.971 C 310.051 281.681,310.498 282.187,315.115 283.312 C 318.035 284.023,318.979 283.348,318.727 280.731 C 318.495 278.311,312.259 276.836,311.286 278.971 M116.932 279.110 C 116.674 279.274,116.332 279.946,116.172 280.604 C 116.012 281.262,115.651 282.136,115.369 282.547 C 114.389 283.981,115.797 286.001,117.774 285.996 C 122.013 285.984,123.229 285.141,123.188 282.240 C 123.156 279.908,118.969 277.814,116.932 279.110 M327.880 282.312 C 326.133 284.243,326.767 285.724,329.756 286.694 C 333.773 287.996,335.416 287.266,335.124 284.305 C 334.947 282.511,329.145 280.914,327.880 282.312 M231.809 283.421 C 229.586 284.958,228.946 286.125,229.573 287.501 C 230.424 289.368,231.816 289.380,234.433 287.545 C 237.146 285.641,237.352 284.890,235.631 283.169 C 234.197 281.736,234.251 281.732,231.809 283.421 M131.242 284.722 C 129.966 287.106,130.707 288.024,134.734 289.048 C 138.111 289.907,138.800 289.549,138.800 286.933 C 138.800 284.520,132.358 282.636,131.242 284.722 M104.850 289.766 C 100.689 292.887,102.704 297.258,106.975 294.375 C 110.105 292.263,110.626 290.989,109.018 289.382 C 107.739 288.103,106.973 288.174,104.850 289.766 M218.607 292.934 C 216.063 294.801,215.888 295.550,217.597 297.258 L 218.793 298.455 220.355 297.577 C 223.035 296.071,224.042 294.915,223.748 293.681 C 223.107 290.998,221.552 290.772,218.607 292.934 M163.695 292.100 C 161.901 294.327,162.719 295.607,166.637 296.707 C 170.424 297.769,172.004 296.567,170.841 293.508 C 170.262 291.986,164.674 290.885,163.695 292.100 M180.490 295.468 C 179.621 295.818,178.721 298.423,179.250 299.060 C 180.940 301.096,187.148 301.445,187.246 299.510 C 187.388 296.701,187.183 296.468,183.938 295.772 C 181.139 295.172,181.211 295.178,180.490 295.468 M91.898 299.068 C 89.434 300.894,89.106 302.091,90.647 303.631 L 91.800 304.783 93.894 303.587 C 97.379 301.596,98.066 299.014,95.381 297.993 C 94.011 297.472,94.080 297.451,91.898 299.068 M195.639 299.926 C 194.919 301.272,195.115 302.727,196.100 303.357 C 197.257 304.096,201.034 305.200,202.406 305.200 C 203.072 305.200,203.851 305.630,204.494 306.352 C 205.656 307.656,207.061 307.659,208.238 306.358 C 209.165 305.334,210.106 305.405,211.533 306.605 C 215.089 309.597,219.600 309.480,219.600 306.395 C 219.600 304.342,218.758 303.803,214.563 303.170 C 211.713 302.739,211.235 302.545,210.563 301.542 C 209.629 300.147,209.611 300.147,206.400 301.594 L 203.800 302.766 203.294 301.571 C 202.444 299.563,196.515 298.290,195.639 299.926 M79.344 308.136 C 77.060 309.706,76.505 311.647,77.962 312.966 C 79.526 314.381,84.708 311.288,84.198 309.243 C 83.526 306.550,82.118 306.229,79.344 308.136 M228.522 307.057 C 227.498 307.474,227.041 310.023,227.855 310.787 C 228.788 311.664,233.357 312.931,234.397 312.601 C 235.477 312.258,235.885 309.894,235.076 308.660 C 234.313 307.496,230.023 306.447,228.522 307.057 M194.348 310.402 C 191.655 311.825,190.639 313.450,191.508 314.944 C 192.733 317.050,195.535 316.481,197.900 313.646 C 199.760 311.417,197.072 308.963,194.348 310.402 M261.479 314.721 C 259.315 314.984,259.033 318.450,261.111 319.245 C 265.317 320.855,267.222 320.596,267.748 318.341 C 268.225 316.295,264.801 314.317,261.479 314.721 M276.176 319.796 C 275.196 322.142,277.815 324.161,281.728 324.076 C 286.537 323.972,284.112 319.248,278.901 318.570 L 276.802 318.297 276.176 319.796 M180.874 319.992 C 177.685 322.302,177.382 324.046,179.940 325.369 C 181.139 325.989,184.089 324.274,185.476 322.150 C 187.005 319.810,183.436 318.137,180.874 319.992 M167.800 329.247 C 165.324 331.091,164.976 332.301,166.473 333.862 L 167.683 335.124 169.142 334.295 C 172.554 332.357,173.467 330.730,172.177 328.889 C 171.320 327.665,169.752 327.793,167.800 329.247 " stroke="none" fill="#fafafa" fill-rule="evenodd"></path></g></svg>