<?xml version="1.0"?>
<svg xmlns="http://www.w3.org/2000/svg" height="512px" viewBox="0 0 512 512" width="512px" class=""><g><path d="m128 240h288v32h-288zm0 0" fill="#1e88e5" data-original="#1E88E5" class="active-path" style="fill:#969696" data-old_color="#979797"/><path d="m352 334.816406c-6.878906-5.550781-7.953125-15.617187-2.398438-22.496094l45.839844-56.847656-45.839844-56.847656c-5.554687-6.882812-4.464843-16.945312 2.414063-22.496094 6.878906-5.554687 16.960937-4.464844 22.496094 2.398438l62.0625 76.945312-62.0625 76.925782c-5.566407 6.882812-15.632813 7.96875-22.511719 2.417968zm0 0" fill="#42a5f5" data-original="#42A5F5" class="" style="fill:#777777" data-old_color="#E6EAEA"/><path d="m512 512h-224v-144c0-8.832031 7.167969-16 16-16s16 7.167969 16 16v112h160v-448h-160v112c0 8.832031-7.167969 16-16 16s-16-7.167969-16-16v-144h224zm0 0" fill="#80deea" data-original="#80DEEA" class="" style="fill:#FFFFFF" data-old_color="#ffffff"/><g fill="#42a5f5"><path d="m0 240h32v32h-32zm0 0" data-original="#000000" class="" style="fill:#CDD4D5" data-old_color="#000000"/><path d="m64 240h32v32h-32zm0 0" data-original="#000000" class="" style="fill:#CDD4D5" data-old_color="#000000"/></g></g> </svg>
