<svg width="400" height="420.85308056872043" xmlns="http://www.w3.org/2000/svg" xmlns:svg="http://www.w3.org/2000/svg" xmlns:xlink="http://www.w3.org/1999/xlink">
 <g>
  <title>Layer 1</title>
  <g id="svgg">
   <path stroke-width="0" fill-rule="evenodd" fill="#ffffff" stroke="#ff0000" d="m165.79401,63.014c-5.59001,3.874 -5.96501,4.137 -7.505,5.272c-0.83101,0.613 -2.541,1.82999 -3.8,2.70399c-1.259,0.875 -3.21899,2.315 -4.356,3.2c-1.13699,0.88599 -3.89299,2.87 -6.12399,4.41c-2.231,1.54 -4.647,3.25 -5.368,3.8c-0.72101,0.55 -1.74501,1.308 -2.276,1.685c-1.078,0.766 -5.086,3.656 -9.45801,6.821c-1.592,1.152 -4.07999,2.904 -5.529,3.894c-1.449,0.99 -3.725,2.655 -5.058,3.7c-1.332,1.045 -2.556,1.9 -2.72,1.9c-0.164,0 -1.393,0.855 -2.731,1.9c-1.33801,1.045 -3.078,2.35 -3.867,2.89999c-0.789,0.55 -2.046,1.45 -2.792,2c-0.747,0.55 -2.61,1.869 -4.14,2.931c-1.531,1.062 -3.118,2.188 -3.527,2.50201c-0.876,0.674 -6.172,4.51099 -8.059,5.84c-0.725,0.51 -1.932,1.377 -2.684,1.927c-0.75201,0.55 -1.959,1.409 -2.68401,1.909c-0.724,0.5 -2.85,2.03 -4.725,3.4c-1.875,1.37 -3.94,2.83701 -4.59,3.259c-0.649,0.422 -1.36501,0.91899 -1.591,1.105c-0.225,0.185 -1.079,0.82899 -1.896,1.43201c-0.818,0.60199 -2.32,1.715 -3.339,2.472c-1.019,0.75699 -2.016,1.804 -2.214,2.32599c-0.556,1.46301 -0.474,183.011 0.083,184.23399c0.244,0.53601 0.82899,1.16702 1.3,1.401c1.955,0.97302 3.99001,1.64502 6.15701,2.034c1.264,0.22702 3.64899,0.76703 5.299,1.20102c4,1.052 8.153,2.039 10.6,2.51801c1.10001,0.216 3.08,0.71899 4.4,1.11899c1.32,0.39999 3.21,0.84302 4.2,0.98599c0.99,0.142 2.88,0.59702 4.2,1.01001c1.32,0.414 3.3,0.875 4.4,1.02499c1.1,0.151 2.63,0.52002 3.4,0.82001c0.77,0.30099 2.75,0.80499 4.39999,1.121c2.84,0.54401 3.983,0.81699 11.2,2.672c1.65,0.42499 4.079,0.965 5.398,1.202c1.319,0.237 2.724,0.60501 3.12199,0.81799c0.39799,0.21301 1.839,0.56201 3.202,0.77502c1.36301,0.21298 3.558,0.72699 4.87801,1.142c1.32001,0.41599 3.26199,0.87198 4.315,1.01398c1.054,0.142 2.509,0.50601 3.233,0.80902c0.72499,0.30298 2.293,0.67798 3.485,0.83398c1.192,0.15601 3.105,0.604 4.252,0.996c1.146,0.392 2.946,0.82501 4,0.96399c1.05299,0.138 2.653,0.51401 3.55499,0.83701c0.90201,0.32202 2.972,0.83902 4.60001,1.14902c1.62799,0.311 3.95,0.828 5.16,1.14999c5.15799,1.37299 7.57399,1.953 10.39999,2.49399c1.64999,0.31601 3.63,0.82001 4.39999,1.121c0.77,0.30002 2.3,0.66901 3.40001,0.82001c1.09999,0.14999 3.08,0.60901 4.39999,1.01999c1.32001,0.41101 3.3,0.86902 4.40001,1.017c1.09999,0.14902 2.614,0.526 3.364,0.83801c0.75,0.31299 2.64,0.76501 4.2,1.00601c1.56,0.23999 3.146,0.60098 3.524,0.80099c0.379,0.20099 2.269,0.70999 4.2,1.133c1.93201,0.422 5.492,1.23801 7.912,1.81201c2.42,0.57397 5.84,1.36899 7.59999,1.76498c1.76001,0.397 4.17801,1.01801 5.373,1.38c1.42201,0.43201 3.61801,0.659 6.358,0.659c4.577,0 4.16101,0.16599 9.81601,-3.901c0.689,-0.496 1.883,-1.345 2.653,-1.88699c0.76999,-0.54102 2.12,-1.517 3,-2.16699c0.88,-0.651 3.04001,-2.19803 4.79999,-3.43903c1.76001,-1.241 3.92001,-2.79099 4.80002,-3.44498c0.87997,-0.65402 2.22998,-1.63202 3,-2.173c0.76999,-0.54199 2.03,-1.436 2.79999,-1.98801c0.76999,-0.552 2.03,-1.44601 2.79999,-1.98801c0.77002,-0.54099 2.12003,-1.51898 3,-2.172c0.88,-0.65298 2.59003,-1.867 3.80002,-2.69699c1.20999,-0.83002 2.38,-1.65399 2.60001,-1.83099c0.69699,-0.561 3.314,-2.47501 4.79999,-3.51202c0.78799,-0.54999 2.048,-1.44998 2.79999,-2c0.75201,-0.54999 2.013,-1.44998 2.802,-2c0.789,-0.54999 2.49402,-1.81 3.78802,-2.79999c1.29398,-0.98999 3.54797,-2.60999 5.008,-3.60001c1.45999,-0.98999 3.26599,-2.25 4.01199,-2.79999c0.74701,-0.55002 1.94901,-1.41699 2.67401,-1.927c3.31198,-2.33301 7.48898,-5.366 9.29898,-6.75299c1.091,-0.836 2.98102,-2.19501 4.20001,-3.01901c1.21899,-0.82501 3.47699,-2.40799 5.017,-3.517c2.60498,-1.87701 4.099,-2.935 6.60001,-4.66901c0.54999,-0.38199 1.935,-1.418 3.07898,-2.30399c1.14301,-0.88602 3.36502,-2.51102 4.939,-3.61102c1.573,-1.09998 3.38202,-2.53998 4.01901,-3.19998l1.159,-1.20001l0.00201,-92.071l0.00198,-92.07099l-1.48999,-1.228c-0.819,-0.675 -2.12399,-1.325 -2.89999,-1.445c-0.77502,-0.12 -2.49002,-0.489 -3.81,-0.82c-1.32001,-0.332 -3.93002,-0.943 -5.80002,-1.359c-1.87,-0.416 -4.384,-1.038 -5.58701,-1.381c-1.203,-0.344 -2.56998,-0.625 -3.03799,-0.625c-0.46698,0 -1.823,-0.334 -3.01199,-0.742c-1.19,-0.408 -3.06299,-0.868 -4.16299,-1.022c-1.10001,-0.154 -3.03601,-0.631 -4.302,-1.058c-1.26501,-0.428 -2.71899,-0.778 -3.229,-0.778c-0.51001,0 -2.431,-0.45 -4.26901,-1c-1.83798,-0.55 -3.759,-1 -4.26898,-1c-0.51001,0 -1.96402,-0.346 -3.229,-0.76801c-1.26599,-0.422 -3.50101,-0.965 -4.966,-1.20499c-1.466,-0.241 -3.26599,-0.686 -4,-0.98801c-0.73499,-0.30299 -2.32599,-0.682 -3.53601,-0.842c-1.20999,-0.161 -2.82999,-0.54 -3.59998,-0.844c-0.77002,-0.303 -2.75,-0.811 -4.40002,-1.128c-2.94199,-0.565 -5.81198,-1.242 -10.59998,-2.497c-1.32001,-0.347 -3.88501,-0.967 -5.70001,-1.379c-1.815,-0.412 -4.785,-1.086 -6.60001,-1.498c-1.815,-0.412 -4.37999,-1.032 -5.7,-1.379c-4.78799,-1.255 -7.65799,-1.93201 -10.59999,-2.497c-1.65001,-0.317 -3.63,-0.823 -4.40001,-1.124c-0.77,-0.3 -2.3,-0.669 -3.39999,-0.82c-1.10001,-0.15 -3.08,-0.611 -4.40001,-1.025c-1.31999,-0.413 -3.20999,-0.867 -4.2,-1.007c-0.98999,-0.14101 -2.836,-0.604 -4.10199,-1.028c-1.26501,-0.424 -2.705,-0.771 -3.20001,-0.771c-0.49399,0 -2.42799,-0.427 -4.29799,-0.949c-1.87001,-0.522 -4.39,-1.164 -5.60001,-1.425c-4.748,-1.026 -8.698,-1.959 -10.8,-2.552c-1.20999,-0.341 -3.00999,-0.742 -4,-0.892c-0.98999,-0.149 -2.414,-0.524 -3.164,-0.833c-0.75,-0.309 -2.61299,-0.755 -4.13899,-0.992c-1.52701,-0.237 -3.358,-0.674 -4.069,-0.971c-0.71201,-0.297 -2.269,-0.668 -3.461,-0.824c-1.192,-0.156 -3.14,-0.616 -4.33,-1.023c-3.57001,-1.22 -4.62801,-1.031 -8.243,1.475m12.006,6.193c1.31999,0.406 3.20999,0.854 4.2,0.994c0.99001,0.14101 2.836,0.604 4.10201,1.028c1.265,0.424 2.696,0.771 3.179,0.771c0.483,0 2.50699,0.434 4.49899,0.964c6.095,1.622 8.69501,2.249 11.82001,2.85101c1.64999,0.318 3.62999,0.828 4.39999,1.134c0.77,0.306 2.39,0.689 3.60001,0.85101c1.20999,0.16199 2.82999,0.543 3.59999,0.847c0.77,0.30299 2.75,0.811 4.40001,1.128c2.68799,0.517 4.04799,0.828 9.79999,2.243c0.88,0.217 2.77,0.667 4.20001,1.001c2.58099,0.604 4.513,1.083 7.2,1.787c0.77,0.202 2.435,0.566 3.7,0.809c2.868,0.551 3.298,2.069 1,3.536c-0.715,0.456 -1.86,1.239 -2.54401,1.739c-0.68399,0.501 -1.76399,1.262 -2.39999,1.693c-0.98801,0.669 -2.004,1.424 -3.95599,2.94c-0.22,0.171 -1.39,0.99 -2.60001,1.82c-1.21001,0.82999 -2.92,2.044 -3.8,2.697c-0.87999,0.653 -2.23,1.631 -3,2.172c-0.77,0.542 -2.03,1.436 -2.8,1.988c-0.76999,0.552 -2.099,1.497 -2.95399,2.10101c-0.854,0.605 -1.93401,1.369 -2.39999,1.699c-0.46501,0.33 -1.946,1.41 -3.291,2.4c-1.345,0.99 -2.851,2.07 -3.34601,2.4c-0.985,0.657 -3.189,2.277 -4.90399,3.605c-2.582,1.999 -3.741,1.89 -17.505,-1.649c-1.64999,-0.425 -4.035,-0.95699 -5.299,-1.184c-1.265,-0.227 -2.88501,-0.651 -3.60001,-0.943c-0.716,-0.292 -2.201,-0.655 -3.30099,-0.807c-1.10001,-0.152 -3.40401,-0.714 -5.121,-1.249c-1.716,-0.535 -3.657,-0.973 -4.312,-0.973c-0.65601,0 -1.84601,-0.27299 -2.644,-0.606c-0.798,-0.334 -2.70001,-0.8 -4.22601,-1.037c-1.52699,-0.237 -3.34299,-0.667 -4.03699,-0.956c-0.69301,-0.289 -2.16,-0.646 -3.26001,-0.795c-1.09999,-0.148 -2.86099,-0.542 -3.914,-0.875c-1.05299,-0.332 -3.483,-0.956 -5.39999,-1.386c-8.07401,-1.809 -9.998,-2.264 -12.086,-2.857c-1.21001,-0.34399 -3.05101,-0.74 -4.091,-0.88c-2.932,-0.394 -2.908,-1.86 0.067,-4.008c0.91499,-0.66 2.27699,-1.64999 3.02699,-2.2c0.75,-0.55 2.009,-1.45 2.79701,-2c0.78799,-0.55 2.04799,-1.45 2.79999,-2c0.752,-0.55 2.015,-1.45 2.80701,-2c0.793,-0.55 1.655,-1.189 1.91699,-1.419c0.26201,-0.231 1.466,-1.097 2.67601,-1.926c1.20999,-0.829 2.92,-2.042 3.8,-2.695c0.87999,-0.653 2.23,-1.631 3,-2.172c0.76999,-0.542 2.03,-1.436 2.79999,-1.988c0.77,-0.552 2.03,-1.44601 2.8,-1.98801c0.77,-0.54099 2.12001,-1.521 3,-2.17599c8.03101,-5.982 9.34401,-6.354 15.60001,-4.429m-9.786,7.967c-1.53801,2.87299 -0.05901,7.626 2.37199,7.626c1.77299,0 2.883,-4.87 1.771,-7.76701c-0.375,-0.979 -3.603,-0.869 -4.14299,0.14101m96.68399,12.797c1.26599,0.424 3.112,0.887 4.10199,1.028c0.99002,0.14 2.88,0.591 4.20001,1.001c1.32001,0.41 3.20999,0.861 4.20001,1.001c0.98999,0.141 2.836,0.604 4.10199,1.028c1.26498,0.424 2.71799,0.771 3.22699,0.771c0.509,0 1.90302,0.296 3.09802,0.659c1.19498,0.362 3.61298,0.983 5.37299,1.38c4.27499,0.96301 11.21899,2.604 13.20001,3.118c1.98099,0.515 6.18399,1.515 10.39999,2.474c1.75998,0.401 4.18399,1.008 5.38699,1.349c1.203,0.341 2.57001,0.62 3.03799,0.62c0.46701,0 1.823,0.334 3.01199,0.742c1.19,0.408 3.06302,0.867 4.16302,1.021c6.43399,0.9 6.79199,2.192 1.59998,5.779c-2.40698,1.663 -6.52899,4.555 -7.78,5.458c-0.60898,0.43999 -1.62799,1.147 -2.26398,1.572c-0.63602,0.425 -1.336,0.965 -1.556,1.2c-0.22,0.235 -1.47601,1.148 -2.79001,2.028c-1.315,0.88 -2.69299,1.87 -3.06302,2.2c-0.37,0.33 -1.90399,1.461 -3.40997,2.514c-1.505,1.053 -3.99701,2.795 -5.53702,3.87199c-1.54001,1.076 -3.79001,2.69701 -5,3.60301c-7.22,5.403 -7.72101,5.48499 -16.742,2.77499c-1.39798,-0.42 -2.97299,-0.76401 -3.49899,-0.76401c-0.52499,0 -1.992,-0.347 -3.25699,-0.771c-1.26602,-0.424 -3.112,-0.88699 -4.10202,-1.028c-0.98999,-0.14 -2.87997,-0.59399 -4.19998,-1.007c-1.32001,-0.414 -3.30002,-0.87399 -4.39999,-1.02199c-1.10001,-0.149 -2.63,-0.54001 -3.40002,-0.87001c-0.76999,-0.33 -2.75,-0.83099 -4.39999,-1.114c-1.64999,-0.283 -3.98999,-0.783 -5.2,-1.11c-2.826,-0.76599 -6.955,-1.77499 -11,-2.689c-1.75999,-0.397 -3.92,-0.911 -4.8,-1.142c-0.87999,-0.231 -2.76999,-0.693 -4.2,-1.028c-1.42999,-0.334 -3.31999,-0.784 -4.2,-1.00101c-4.75999,-1.171 -7.049,-1.709 -9.339,-2.196c-4.095,-0.87 -3.845,-1.62199 1.867,-5.62199c4.004,-2.804 8.28799,-5.87701 10.87199,-7.798c5.04201,-3.749 9.48801,-6.896 13.09801,-9.271c0.55901,-0.368 1.12599,-0.818 1.259,-1c0.134,-0.182 1.323,-1.049 2.64299,-1.926c1.32001,-0.877 2.496,-1.725 2.61401,-1.885c2.562,-3.471 8.54898,-5.335 12.68399,-3.949m-96.198,3.241c-1.575,0.634 -1.351,6.534 0.28,7.378c2.854,1.47501 3.62,0.665 3.62,-3.827c0,-4.056 -0.81,-4.793 -3.89999,-3.551m87.914,5.162c-0.60901,1.137 -0.52,6.129 0.125,7.01c0.53,0.725 3.47,0.741 4.18799,0.02299c0.767,-0.768 0.547,-6.133 -0.285,-6.965c-1.10999,-1.11 -3.44897,-1.15 -4.02798,-0.068m-128.614,7.813c2.42,0.58401 5.98,1.40701 7.912,1.829c1.931,0.423 3.821,0.932 4.2,1.133c0.37799,0.2 1.964,0.561 3.524,0.80099c1.56,0.241 3.45,0.693 4.2,1.006c0.75,0.312 2.26399,0.689 3.364,0.838c1.10001,0.148 3.08,0.603 4.39999,1.01c1.32001,0.408 3.21001,0.857 4.20001,0.997c2.58899,0.369 6.375,1.697 8,2.807c1.228,0.839 1.84299,0.95399 5,0.937c2.539,-0.013 4.366,0.221 6.2,0.793c1.42999,0.446 3.765,1.01801 5.19,1.27c1.424,0.253 2.90199,0.627 3.28499,0.832c0.38301,0.20499 2.138,0.625 3.90001,0.932c1.76199,0.308 4.241,1.034 5.509,1.615l2.306,1.056l-1.795,1.176c-0.98701,0.647 -2.785,1.905 -3.99501,2.796c-1.20999,0.89101 -2.83,2.062 -3.59999,2.601c-0.77,0.54001 -2.03,1.43201 -2.8,1.98401c-0.77,0.55199 -2.099,1.49699 -2.95401,2.101c-2.92899,2.071 -3.25099,2.30299 -5.84599,4.198c-1.42999,1.045 -2.791,2.056 -3.02499,2.246c-1.03201,0.84099 -2.231,1.25499 -3.649,1.25999c-2.80301,0.00999 -3.242,0.302 -3.91,2.59801c-0.464,1.599 -0.93401,2.321 -1.916,2.94699c-0.715,0.457 -1.86,1.24001 -2.54401,1.74001c-0.68399,0.50099 -1.76099,1.27 -2.39299,1.70999c-0.632,0.44 -1.427,1.07001 -1.76601,1.40001c-1.717,1.67099 -3.483,2.198 -5.487,1.634c-1.05099,-0.295 -2.89999,-0.69901 -4.11,-0.89801c-1.20999,-0.19899 -3.23599,-0.71599 -4.502,-1.149c-1.265,-0.433 -2.718,-0.78699 -3.22701,-0.78699c-0.50899,0 -1.903,-0.29601 -3.09799,-0.65901c-2.116,-0.64099 -4.644,-1.241 -12.298,-2.91499c-2.049,-0.44901 -4.114,-1.088 -4.589,-1.42101c-0.475,-0.33299 -1.595,-0.605 -2.488,-0.605c-0.893,0 -2.608,-0.284 -3.811,-0.63c-1.203,-0.347 -3.53699,-0.88699 -5.187,-1.20099c-1.65,-0.31401 -3.637,-0.82401 -4.415,-1.13301c-0.778,-0.30899 -2.308,-0.683 -3.4,-0.83099c-1.092,-0.147 -3.06499,-0.60201 -4.38499,-1.009c-1.32,-0.408 -3.21001,-0.85699 -4.2,-0.99699c-0.99,-0.14101 -2.836,-0.604 -4.102,-1.028c-1.265,-0.42401 -2.705,-0.772 -3.2,-0.77301c-0.897,-0.00299 -8.81599,-2.177 -9.52599,-2.61499c-0.54,-0.334 2.715,-2.957 8.667,-6.983c1.464,-0.99001 2.957,-2.07 3.318,-2.4c0.36099,-0.33 1.174,-0.96 1.806,-1.4c0.632,-0.44 1.709,-1.206 2.393,-1.701c0.684,-0.496 1.874,-1.344 2.644,-1.883c0.77,-0.54 2.66,-1.888 4.2,-2.995c1.53999,-1.10699 3.78999,-2.68 5,-3.495c1.21,-0.816 3.00999,-2.12901 4,-2.92001c0.99,-0.78999 2.78999,-2.119 4,-2.953c1.21,-0.834 3.00999,-2.128 4,-2.876c2.197,-1.659 4.084,-1.65701 11,0.00999m-10.511,7.636c-0.791,0.554 -0.889,0.97 -0.889,3.792c0,3.534 0.246,3.801 3.245,3.514l1.355,-0.129l0.117,-3.339c0.153,-4.372 -1.171,-5.7 -3.828,-3.83801m139.151,0.903c-0.55701,1.04 -0.575,5.875 -0.026,6.9c0.57901,1.082 2.918,1.042 4.02798,-0.068c0.84003,-0.84 1.04901,-6.2 0.27103,-6.978c-0.77301,-0.774 -3.83701,-0.669 -4.27301,0.146m86.52701,-0.483c1.392,0.534 0.84399,82.55701 -0.55103,82.55701c-0.168,0 -0.95297,0.495 -1.745,1.09999c-0.79099,0.60501 -2.03,1.51701 -2.755,2.02701c-1.88699,1.32899 -7.18298,5.166 -8.05899,5.84c-0.409,0.314 -1.996,1.44 -3.52701,2.502c-1.53,1.062 -3.39297,2.381 -4.13998,2.931c-0.746,0.55 -2.00299,1.45 -2.79199,2c-0.789,0.55 -2.52902,1.855 -3.867,2.90001c-1.33801,1.045 -2.57401,1.89999 -2.745,1.89999c-0.172,0 -1.276,0.765 -2.45401,1.7c-1.17801,0.935 -2.67999,2.07201 -3.33701,2.526c-0.65698,0.45399 -2.431,1.68401 -3.94101,2.733c-1.61499,1.12199 -2.89398,1.761 -3.10397,1.55099c-0.203,-0.20299 -0.31302,-8.30699 -0.254,-18.73399l0.10397,-18.37601l1.27502,-0.59999c2.67798,-1.261 2.92398,-4.071 0.42499,-4.862l-1.70001,-0.53801l-0.10397,-19.42l-0.104,-19.42099l1.62399,-1.179c0.892,-0.649 2.237,-1.63 2.987,-2.18001c0.75,-0.55 1.95599,-1.41499 2.681,-1.923c4.27499,-2.99799 7.5,-5.312 10.13901,-7.27699c0.73898,-0.55 1.98898,-1.45 2.77698,-2c0.78802,-0.55 2.048,-1.45 2.80002,-2c0.75198,-0.55 2.01199,-1.45 2.79999,-2c0.78799,-0.55 2.035,-1.45 2.771,-2c0.73602,-0.55 1.74701,-1.27 2.246,-1.6c0.5,-0.33 2.185,-1.533 3.746,-2.673c1.56,-1.14 3.436,-2.49 4.16901,-3c0.73199,-0.50999 1.81201,-1.326 2.39999,-1.814c1.17902,-0.98 1.319,-1.022 2.23502,-0.67001m-129.76701,12.34c1.43001,0.353 3.32001,0.829 4.2,1.058c2.03601,0.531 9.382,2.262 12,2.828c1.10001,0.23801 3.53,0.86 5.40001,1.382c1.87,0.522 3.804,0.94901 4.298,0.94901c0.495,0 1.935,0.34999 3.2,0.778c1.26599,0.427 3.202,0.90399 4.302,1.058c1.09999,0.15399 2.97299,0.614 4.16299,1.022c1.189,0.40799 2.59399,0.74199 3.12199,0.74199c0.565,0 1.43001,0.51401 2.10201,1.25c1.13199,1.24001 1.16699,1.24901 4.078,0.99701c1.61398,-0.13901 3.565,-0.076 4.33499,0.14c0.77002,0.216 2.57001,0.677 4,1.024c1.42999,0.34799 3.67999,0.91499 5,1.261c1.32001,0.347 3.84,0.948 5.60001,1.336c8.634,1.907 8.99301,2.17499 5.93799,4.448c-1.28598,0.957 -2.42798,1.83499 -2.53799,1.951c-0.10999,0.116 -0.72,0.56699 -1.35599,1.002c-0.63602,0.435 -1.716,1.19699 -2.39999,1.692c-0.68402,0.49599 -1.87402,1.351 -2.64401,1.89899c-0.76999,0.548 -2.03,1.44801 -2.79999,2c-0.77002,0.552 -2.03,1.44501 -2.80002,1.98401c-0.76999,0.53999 -2.66,1.894 -4.19998,3.009c-3.517,2.547 -4.95502,3.207 -6.987,3.207c-1.96002,0 -3.21301,1.086 -3.21301,2.784c0,1.23799 -0.03799,1.286 -2.56599,3.23c-1.66701,1.282 -2.321,1.50999 -4.79601,1.679c-1.433,0.09801 -1.60699,0.239 -2.103,1.707c-1.07001,3.162 -3.14101,3.745 -6.935,1.953c-1.21001,-0.57201 -3.10001,-1.177 -4.20001,-1.34601l-2,-0.30699l1.83801,-0.05c2.097,-0.05701 3.032,-0.81599 3.23199,-2.62399c0.14799,-1.339 -0.41501,-1.72501 -4.07001,-2.79201l-2.2,-0.64301l-0.89999,1.02701c-0.558,0.63699 -0.90001,1.547 -0.90001,2.397c0,2.258 -2.478,2.36899 -7.19699,0.32199l-2.343,-1.01599l0.76801,-1.26001c1.48099,-2.429 0.967,-3.504 -2.04401,-4.27699c-4.56,-1.17 -4.813,-1.07201 -5.174,2.01599l-0.21001,1.8l-1.836,0.119c-1.19499,0.078 -2.592,-0.18401 -4,-0.75101c-1.19,-0.478 -2.974,-1.101 -3.964,-1.383c-1.44699,-0.41299 -1.584,-0.52 -0.7,-0.549c1.989,-0.065 3.759,-3.334 2.29401,-4.239c-0.379,-0.235 -5.752,-1.797 -6.18001,-1.797c-0.57399,0 -1.55899,2.27899 -1.481,3.429c0.13701,2.034 -1.54599,2.18399 -6.41399,0.569l-3.81601,-1.26501l0.94901,-0.948c1.282,-1.28299 1.308,-3.48 0.048,-4.073c-4.79201,-2.25499 -7.377,-1.493 -7.02101,2.071c0.17801,1.78401 -1.81,1.839 -6.767,0.188c-3.8,-1.26601 -3.83,-1.287 -2.759,-1.84799c1.04701,-0.54901 1.847,-1.927 1.847,-3.181c0,-0.33401 -0.7,-0.88101 -1.556,-1.218c-1.48799,-0.584 -1.526,-0.642 -0.84999,-1.31801c0.388,-0.388 0.774,-0.87399 0.856,-1.07899c0.08299,-0.20601 1.14,-1.05 2.34999,-1.877c1.21001,-0.826 2.92,-2.037 3.8,-2.69c0.88,-0.653 2.23,-1.631 3,-2.172c0.77,-0.54201 2.03,-1.436 2.8,-1.98801c0.77,-0.552 2.099,-1.49699 2.95399,-2.101c0.854,-0.605 1.93401,-1.369 2.40001,-1.69901c0.465,-0.32999 1.946,-1.40999 3.291,-2.39999c1.34499,-0.99001 2.855,-2.07001 3.35599,-2.39999c0.50101,-0.33 1.38,-0.96701 1.955,-1.41501c0.57401,-0.44901 1.494,-1.12599 2.04401,-1.505c2.25099,-1.54999 3.88499,-2.716 5.39999,-3.85299c1.782,-1.33601 2.472,-1.36 7,-0.244m-44.711,0.04c-0.791,0.554 -0.88899,0.97 -0.88899,3.786c0,3.606 0.42299,4.138 3.11699,3.914l1.483,-0.123l0.116,-3.53999c0.151,-4.582 -1.12599,-5.929 -3.827,-4.037m-51.466,3.866c-1.925,2.74699 -0.404,7.63 2.31499,7.43201l1.662,-0.121l0.119,-3.19901c0.169,-4.578 0.008,-5.00099 -1.90401,-5.00099c-1.169,0 -1.729,0.22699 -2.19199,0.88899m-39.223,12.716c1.32,0.40199 3.3,0.853 4.39999,1.00099c1.10001,0.149 2.61401,0.526 3.36401,0.83801c0.75,0.31299 2.613,0.76199 4.139,0.99899c1.527,0.237 3.34299,0.66701 4.03699,0.95599c0.693,0.289 2.16,0.64601 3.26,0.79501c1.1,0.14799 3.08,0.60599 4.4,1.017c1.32,0.411 3.3,0.86899 4.4,1.017c1.1,0.149 2.585,0.509 3.30099,0.80099c0.715,0.29201 2.305,0.716 3.533,0.94301c1.332,0.24699 2.716,0.81999 3.43,1.42099c1.572,1.323 2.92899,1.627 4.902,1.101c1.321,-0.353 2.014,-0.297 3.824,0.30501c1.215,0.405 3.45699,0.942 4.981,1.19299c1.52501,0.25101 3.10501,0.63501 3.513,0.85301c0.408,0.21799 2.17,0.64799 3.916,0.95499c1.746,0.30701 3.51401,0.74001 3.929,0.96201c0.41501,0.222 1.996,0.601 3.513,0.841c2.75999,0.436 7.117,1.79599 8.058,2.51399c0.802,0.61101 0.724,81.99901 -0.07899,82.66501c-0.72701,0.60399 -4.334,0.215 -7.42101,-0.80101c-1.20999,-0.39799 -3.00999,-0.83899 -4,-0.98c-0.98999,-0.14 -2.87999,-0.588 -4.2,-0.993c-1.32001,-0.40601 -3.21001,-0.85001 -4.2,-0.98801c-0.99001,-0.138 -2.88,-0.59399 -4.2,-1.01399c-1.32001,-0.41901 -3.21001,-0.867 -4.2,-0.996c-2.86,-0.371 -2.922,-0.47099 -3.174,-5.08l-0.226,-4.13l-1.483,-0.123c-2.515,-0.209 -3.117,0.38901 -3.117,3.093c0,3.32901 -0.848,4.34201 -3.028,3.617c-0.865,-0.28799 -3.012,-0.843 -4.772,-1.235c-8.732,-1.94299 -10.158,-2.283 -12.173,-2.89301c-1.195,-0.36299 -2.589,-0.659 -3.098,-0.659c-0.509,0 -1.96201,-0.354 -3.22701,-0.786c-1.266,-0.43201 -3.543,-0.98 -5.06,-1.217c-1.517,-0.237 -3.098,-0.61301 -3.513,-0.83501c-0.415,-0.222 -2.21,-0.66 -3.989,-0.97299c-1.872,-0.32901 -3.973,-1.00101 -4.989,-1.597l-1.755,-1.028l0.10201,-40.87001l0.102,-40.87l0.976,-0.487c1.091,-0.54401 2.30901,-0.40401 5.82401,0.668m178.44301,5.028c-1.54301,4.02 0.17999,7.81799 3.22198,7.101l1.535,-0.362l0.11801,-3.17799c0.099,-2.645 0.00198,-3.263 -0.57602,-3.686c-1.021,-0.74701 -3.99799,-0.66 -4.29898,0.125m36.05899,43.405l0.10199,40.62601l-1.29099,1.168c-0.711,0.642 -1.681,1.43799 -2.15601,1.76799c-0.47501,0.33 -2.10001,1.455 -3.61099,2.50101c-4.74301,3.282 -7.73901,5.427 -9.76199,6.989c-1.07602,0.83 -3.17801,2.371 -4.67001,3.424c-1.49301,1.05301 -3.974,2.812 -5.51401,3.909c-3.733,2.66 -3.953,2.57501 -4.19998,-1.627l-0.20001,-3.396l-1.88199,-0.364c-2.742,-0.53 -3.11801,-0.07401 -3.11801,3.784c0,3.758 0.422,4.356 3.129,4.43401c1.02899,0.03 1.45599,0.134 0.94901,0.231c-0.50601,0.097 -1.08301,0.60199 -1.28,1.12099c-0.198,0.52002 -0.77301,1.16501 -1.27899,1.43402c-0.505,0.26797 -1.86301,1.25497 -3.01701,2.19199c-2.513,2.04199 -4.649,2.87601 -5.517,2.155c-0.808,-0.67001 -0.89101,-79.849 -0.08501,-80.86301c0.27501,-0.34599 1.40001,-1.24199 2.5,-1.98999c2.19501,-1.494 5.98502,-4.211 9.39999,-6.739c3.78403,-2.80101 7.34601,-5.349 9.20801,-6.584c0.98599,-0.65401 2.254,-1.554 2.81799,-2c0.56403,-0.446 1.46402,-1.123 2,-1.505c0.53601,-0.382 2.14401,-1.552 3.57401,-2.60001c1.42999,-1.04799 3.12,-2.26599 3.75601,-2.70599c0.63599,-0.44 1.716,-1.20599 2.39999,-1.701c5.327,-3.86099 6.379,-4.51799 7.04401,-4.397c0.52798,0.09601 0.612,4.992 0.702,40.73601m-175.002,-28.435c-0.827,0.341 -0.9,0.629 -0.9,3.56999c0,3.64601 0.417,4.17401 3.117,3.95001l1.483,-0.123l0,-3.8l0,-3.8l-1.4,-0.084c-0.77,-0.047 -1.805,0.08299 -2.3,0.287m48.015,1.056c0.701,0.36299 1.771,1.19099 2.37799,1.841c1.02,1.09099 1.248,1.15999 3.005,0.907c3.028,-0.436 6.12801,-0.287 8.502,0.409c1.21001,0.355 3.55,0.901 5.2,1.215c1.65001,0.31401 3.63,0.817 4.40001,1.118c0.77,0.3 2.3,0.66901 3.39999,0.82001c1.10001,0.14999 3.08,0.61099 4.40001,1.02499c1.31999,0.41301 3.20999,0.867 4.2,1.007c0.98999,0.14101 2.836,0.604 4.10199,1.028c1.26501,0.424 2.71901,0.771 3.229,0.771c0.51001,0 2.431,0.45001 4.269,1c1.83801,0.55 3.759,1 4.26901,1c0.50999,0 1.96399,0.35001 3.22899,0.778c1.26601,0.427 3.20201,0.90401 4.302,1.058c1.10001,0.15401 2.97301,0.61401 4.16301,1.022c1.189,0.408 2.545,0.742 3.01199,0.742c0.468,0 1.83501,0.278 3.03799,0.617c1.203,0.33899 3.08301,0.83699 4.179,1.10699c3.218,0.793 2.99501,-2.371 3.002,42.714c0.007,46.05598 0.30501,42.42699 -3.36099,40.911l-1.8,-0.745l0.94,-0.802c1.00301,-0.85599 1.66,-3.211 1.008,-3.61301c-0.87199,-0.54001 -5.97699,-1.76498 -6.506,-1.56299c-0.72,0.27701 -1.47501,1.91599 -1.47501,3.203c0,2.22198 -4.73099,1.914 -8.713,-0.569c-0.808,-0.504 -0.84599,-0.64301 -0.33099,-1.21402c2.08499,-2.315 1,-4.09999 -2.946,-4.84399c-3.338,-0.62999 -4.01001,-0.295 -4.01001,1.99802c0,2.81998 -1.90599,3.05899 -7.444,0.93198c-3.23999,-1.245 -3.36499,-1.362 -2.062,-1.93698c2.63501,-1.16301 1.813,-3.67601 -1.52899,-4.67601c-4.05101,-1.213 -5.091,-0.711 -5.142,2.481c-0.03101,1.924 -2.31201,2.12799 -6.423,0.575c-1.54001,-0.582 -3.43001,-1.19899 -4.2,-1.371l-1.40001,-0.312l1.356,-0.04601c3.73199,-0.127 3.38699,-4.25699 -0.433,-5.18799c-4.04601,-0.987 -4.76201,-0.65901 -5.11301,2.342l-0.20999,1.8l-1.8,-0.028c-1.67799,-0.02701 -7.98599,-2.084 -7.996,-2.608c-0.002,-0.129 0.429,-0.433 0.959,-0.674c2.715,-1.237 0.149,-6.823 -2.91299,-6.33801c-1.819,0.28801 -2.69301,1.16901 -3.466,3.496c-0.89101,2.683 -3.85899,3.23201 -6.114,1.13101l-0.87,-0.81001l0,-40.06299l0,-40.06201l1.075,-1.12199c1.246,-1.30099 2.733,-1.44901 4.64,-0.463m-22.62201,7.343c-1.26099,0.903 -2.293,1.69499 -2.293,1.75999c0,0.847 1.04501,2.634 1.765,3.019c1.58101,0.847 5.83501,-1.763 5.83501,-3.58c0,-2.89099 -2.23801,-3.39699 -5.30701,-1.19899m120.76901,4.32899c-2.10001,2.321 -0.52402,4.196 3.97101,4.724c4.50098,0.53 4.82098,-3.58701 0.36697,-4.72299c-3.48999,-0.89 -3.53299,-0.89 -4.33798,-0.00101m-95.162,0.491c-0.573,0.34201 -0.7,0.996 -0.7,3.608c0,3.547 0.53799,4.16701 3.377,3.89l1.22299,-0.12l0,-3.8l0,-3.8l-1.59999,-0.09799c-0.88,-0.054 -1.91501,0.09 -2.3,0.31999m-36.90001,3.405c-3.44299,1.784 -4.299,3.972 -2.22499,5.69101c1.323,1.09599 6.02499,-1.64 6.02499,-3.50601c0,-2.40199 -1.603,-3.32399 -3.8,-2.185m147.83902,0.10001c-0.89102,1.66499 -0.55801,3.631 0.66098,3.905c1.82901,0.412 4.259,1.004 4.979,1.21201c0.86401,0.25 2.01901,-1.86101 1.845,-3.371c-0.21201,-1.838 -6.634,-3.336 -7.48499,-1.746m-162.13902,0.21899c-0.559,0.433 -0.7,1.162 -0.7,3.612l0,3.069l1.466,0.86501c1.331,0.785 1.397,0.903 0.722,1.286c-0.408,0.23201 -1.437,1.052 -2.286,1.82201l-1.544,1.39999l0.717,1.40001c0.492,0.96199 0.755,2.52699 0.839,5c0.168,4.942 2.02399,7.27699 4.28999,5.396c0.979,-0.811 0.828,-6.79401 -0.20399,-8.105c-1.087,-1.382 -1.02,-1.68201 0.587,-2.63c1.79,-1.056 2.221,-2.575 1.076,-3.79401c-0.72301,-0.76999 -0.84901,-1.47099 -0.94901,-5.27699l-0.114,-4.39l-1.6,-0.09801c-0.883,-0.054 -1.914,0.145 -2.3,0.444m139.14301,0.88701c-1.71701,4.47299 0.965,8.918 4.06799,6.74399c1.026,-0.71799 1.33701,-5.96899 0.409,-6.89699c-0.737,-0.737 -4.181,-0.62001 -4.47699,0.153m56.15698,6.045c-0.952,0.339 -1.60001,1.382 -1.60001,2.575c0,1.343 0.30902,1.55 3.60001,2.416c3.44202,0.907 3.42999,0.908 3.98199,-0.42599c0.83301,-2.01201 0.418,-3.379 -1.18198,-3.88901c-1.96802,-0.62799 -4.09302,-0.927 -4.80002,-0.67599m15.646,4.27899c-1.09698,1.175 -1.439,2.785 -0.71899,3.382c0.58301,0.48401 4.617,1.661 5.69299,1.661c1.785,0 2.96802,-3.54999 1.453,-4.36099c-2.22501,-1.19099 -5.617,-1.55 -6.427,-0.68201m-159.784,1.774c-2.655,2.935 0.90901,9.938 3.658,7.18901c0.5,-0.5 0.683,-6.12401 0.237,-7.287c-0.349,-0.91 -3.045,-0.841 -3.895,0.09799m89.138,4.052l-1.19998,0.22301l-0.10202,3.19699c-0.12299,3.834 0.08902,4.239 2.24301,4.26801c2.47699,0.035 2.85901,-0.483 2.85901,-3.871c0,-3.576 -0.79501,-4.375 -3.80002,-3.817m-152.52899,1.599c-2.426,1.91701 -2.613,2.19701 -2.302,3.436c0.662,2.63899 2.857,2.62199 5.81,-0.04601c1.943,-1.756 2.023,-2.563 0.39,-3.936c-1.57,-1.32199 -1.529,-1.327 -3.89799,0.54601m238.689,46.73201c-0.022,21.93698 -0.15698,40.29599 -0.29999,40.797c-0.24402,0.85498 -1.68201,2.13 -5.061,4.48898c-0.78702,0.55002 -2.047,1.45001 -2.79901,2c-0.75198,0.55002 -2.01199,1.45001 -2.79999,2c-1.48599,1.03702 -4.103,2.95102 -4.80002,3.51202c-0.22,0.177 -1.38998,1.00098 -2.59998,1.83099c-1.21002,0.82999 -2.92001,2.04401 -3.80002,2.69699c-0.88,0.65302 -2.22998,1.63101 -3,2.172c-0.76999,0.54199 -2.03,1.436 -2.79999,1.98801c-0.77002,0.552 -2.099,1.49701 -2.95401,2.10101c-0.854,0.60498 -1.93399,1.36899 -2.39999,1.69897c-0.465,0.33002 -1.94601,1.41 -3.29102,2.40002c-1.345,0.98999 -2.85498,2.06998 -3.35599,2.39999c-0.50101,0.32999 -1.422,1.01801 -2.04599,1.52899c-1.95401,1.59601 -1.953,1.60501 -1.953,-17.92401c0,-19.42297 0.017,-19.60498 1.819,-19.60498c2.332,0 2.23199,-3.99402 -0.11902,-4.73801l-1.69998,-0.53799l0,-19.295l0,-19.29501l1.5,-1.179c0.82498,-0.64799 1.94998,-1.48099 2.5,-1.84999c0.54999,-0.37 1.98999,-1.40001 3.19998,-2.289c1.21002,-0.88901 2.90601,-2.088 3.76901,-2.66499c0.862,-0.576 1.76199,-1.20801 2,-1.40401c0.64099,-0.53 3.20001,-2.409 4.83099,-3.547c0.78799,-0.55 2.048,-1.45 2.80002,-2c0.75198,-0.55 2.01199,-1.45 2.79999,-2c0.78799,-0.55 2.03799,-1.45 2.77701,-2c3.23898,-2.411 3.77399,-2.79601 8.62299,-6.211c0.77002,-0.54201 2.03,-1.43701 2.80002,-1.989c0.76999,-0.552 2.06,-1.44501 2.866,-1.985c0.80698,-0.541 1.58298,-1.17 1.72498,-1.40001c0.17801,-0.289 0.496,-0.289 1.03302,-0.002c0.76001,0.407 0.77499,1.21901 0.73599,40.30101m-251.75999,-37.46101c-2.31001,1.729 -2.608,2.92401 -1.104,4.42801l1.193,1.192l1.555,-0.8c2.984,-1.534 4.02,-3.03 3.237,-4.672c-0.873,-1.83 -2.566,-1.882 -4.881,-0.14801m76.5,1.16901c-1.373,0.82001 -0.996,6.604 0.48,7.368c2.86101,1.479 3.703,0.45601 3.536,-4.29399l-0.116,-3.29601l-1.59999,-0.09801c-0.88,-0.05399 -1.91501,0.09001 -2.3,0.32001m-51.2,3.60001c-0.56499,0.33699 -0.7,0.98299 -0.7,3.336c0,3.524 0.621,4.36899 3.061,4.168l1.539,-0.12601l0,-3.8l0,-3.79999l-1.6,-0.09801c-0.88,-0.054 -1.915,0.09 -2.3,0.32001m139.32301,1.536c-0.263,0.491 -0.40701,2.161 -0.34,3.94699l0.117,3.095l1.56198,0.12801c3.23001,0.26401 3.43802,0.05299 3.43802,-3.487c0,-3.567 -0.27002,-3.992 -2.74503,-4.32401c-1.32098,-0.17799 -1.64999,-0.07399 -2.03198,0.64101m-174.82301,1.51399c-3.577,1.24501 -5.456,4.24901 -3.669,5.86601c2.747,2.48599 7.857,-2.68401 5.376,-5.438c-0.665,-0.73801 -0.753,-0.76001 -1.707,-0.42801m86.50001,9.98401c-1.095,0.46199 -0.647,6.748 0.519,7.28c2.95999,1.349 3.851,0.38499 3.698,-3.99699l-0.117,-3.339l-1.8,-0.078c-0.98999,-0.043 -2.02499,0.017 -2.29999,0.134m88.314,4.918c-0.60901,1.13699 -0.52,6.129 0.125,7.00999c0.53,0.72501 3.47,0.741 4.18799,0.02301c0.767,-0.76801 0.547,-6.13301 -0.285,-6.96501c-1.10999,-1.11 -3.44897,-1.14999 -4.02798,-0.06799m-179.184,3.242c0.411,0.21999 2.327,0.745 4.258,1.168c1.932,0.422 5.492,1.23799 7.912,1.812c2.42,0.57401 5.84,1.37199 7.6,1.77299c1.76,0.401 4.28,1.01001 5.6,1.353c1.32,0.343 3.21,0.808 4.2,1.03401c0.99,0.22499 2.88,0.67999 4.2,1.00999c1.32,0.33 3.07,0.705 3.888,0.83299c0.819,0.12801 2.039,0.69601 2.711,1.26201c1.097,0.923 1.442,1.00099 3.351,0.763c1.515,-0.19 2.578,-0.088 3.689,0.354c0.859,0.34099 2.911,0.87799 4.561,1.194c2.84,0.54399 3.983,0.817 11.2,2.672c1.65001,0.425 3.99001,0.951 5.20001,1.17c1.20999,0.218 3.37,0.8 4.79999,1.29199l2.60001,0.895l0.104,17.47099c0.118,19.73801 0.362,18.314 -3.039,17.73901c-2.592,-0.43802 -4.332,2.936 -2.065,4.005c0.55,0.259 1.89999,0.901 3,1.427l2,0.957l0.11099,19.79999c0.061,10.89001 0.00601,20.23099 -0.12199,20.758c-0.291,1.19699 -4.845,1.01599 -8.679,-0.345c-1.25999,-0.44699 -2.713,-0.81299 -3.23,-0.81299c-0.51601,0 -2.442,-0.45001 -4.28,-1c-1.838,-0.55002 -3.759,-1 -4.269,-1c-0.51001,0 -1.964,-0.34702 -3.229,-0.771c-1.26601,-0.42401 -3.112,-0.88702 -4.10201,-1.02802c-0.99,-0.13998 -2.88,-0.58899 -4.2,-0.99701c-1.32,-0.40698 -3.3,-0.862 -4.4,-1.00998c-1.1,-0.14902 -2.614,-0.526 -3.364,-0.83801c-0.75,-0.31299 -2.613,-0.76199 -4.139,-0.99899c-1.527,-0.237 -3.343,-0.66699 -4.037,-0.95599c-0.693,-0.289 -2.16,-0.646 -3.25999,-0.79501c-1.10001,-0.14798 -2.9,-0.556 -4,-0.90698c-1.10001,-0.35001 -3.485,-0.965 -5.3,-1.36801c-6.455,-1.42999 -9.932,-2.237 -12.3,-2.85501c-1.32,-0.34399 -3.437,-0.83099 -4.70499,-1.08099c-1.355,-0.267 -2.797,-0.86899 -3.5,-1.45999l-1.195,-1.00601l0,-40.745c0,-38.373 0.041,-40.769 0.7,-41.17599c0.787,-0.48601 4.562,-0.217 5.73,0.408m215.16999,48.37898c0,27.754 -0.13199,40.24802 -0.431,40.88602c-0.51498,1.09601 -4.95999,4.526 -13.36899,10.319c-3.65601,2.51801 -8.047,5.68698 -10.36502,7.47998c-1.08099,0.836 -2.431,1.77103 -3,2.078c-0.569,0.30701 -1.125,0.668 -1.23499,0.802c-0.32599,0.39801 -3.23801,2.54901 -5.20001,3.84c-1.71698,1.13 -4.75999,3.35303 -5.19998,3.798c-0.942,0.952 -4.20801,2.80801 -4.647,2.63901c-0.46001,-0.17599 -0.55301,-3.31299 -0.55301,-18.57501c0,-19.67999 -0.084,-18.89297 2.06801,-19.40598c1.952,-0.466 1.728,-4.65601 -0.24901,-4.65601c-1.784,0 -1.819,-0.33401 -1.819,-17.57501c0,-15.642 0.033,-16.35901 0.79001,-17.32098c0.785,-0.99802 0.785,-1.01102 0.006,-1.909c-0.76399,-0.88101 -0.739,-2.80801 0.03999,-3.12003c0.17201,-0.06799 1.04201,-0.65298 1.93501,-1.29999c2.032,-1.47198 3.526,-1.51801 4.623,-0.142c1.06598,1.33801 2.918,0.70499 3.284,-1.121c0.125,-0.625 0.65298,-1.47198 1.17401,-1.88199c0.55298,-0.43402 0.948,-1.16901 0.948,-1.76202c0,-1.896 0.746,-2.98999 3.07599,-4.50897c1.27798,-0.83401 3.134,-2.17502 4.12399,-2.98203c0.99002,-0.806 2.38501,-1.76599 3.10001,-2.13199c0.715,-0.366 1.29999,-0.812 1.29999,-0.991c0,-0.179 0.405,-0.53801 0.90002,-0.797c0.495,-0.259 1.62,-1.01401 2.5,-1.67801c0.87997,-0.66299 2.22998,-1.64999 3,-2.19099c0.76999,-0.54201 2.03,-1.436 2.79999,-1.98801c0.76999,-0.552 2.03,-1.45 2.79999,-1.996c0.77002,-0.54599 2.48001,-1.782 3.80002,-2.746c4.181,-3.05499 3.79999,-6.963 3.79999,38.937m-175.11099,-36.17198c-1.436,1.006 -1.336,6.64499 0.13,7.31299c2.927,1.334 3.781,0.578 3.781,-3.34599c0,-4.713 -1.16299,-5.892 -3.911,-3.967m47.19699,8.756c0.94301,0.31799 2.90701,0.76799 4.36501,1c1.45801,0.23099 3.258,0.67099 4,0.97598c0.742,0.306 2.339,0.68802 3.549,0.84802c1.21001,0.16098 2.83,0.54199 3.60001,0.84799c0.77,0.306 2.75,0.81601 4.39999,1.134c3.125,0.60199 5.72501,1.229 11.82001,2.85098c1.992,0.53 4.01599,0.96402 4.49899,0.96402c0.483,0 1.914,0.34698 3.179,0.771c1.26601,0.42401 3.112,0.88699 4.10201,1.02798c0.99001,0.14001 2.88,0.58902 4.2,0.99701c1.32001,0.40701 3.293,0.862 4.38501,1.009c1.092,0.14801 2.62199,0.522 3.39999,0.83099c0.778,0.30902 2.765,0.82202 4.41499,1.13901c2.88501,0.55499 4.39801,0.90799 11.40001,2.66199c5.073,1.27103 5.14799,1.30402 5.43399,2.367c0.716,2.66202 0.40501,81.06 -0.325,81.94202l-0.709,0.85498l-3.8,-0.79099c-2.09,-0.435 -4.68399,-1.065 -5.76399,-1.39999c-1.08,-0.336 -2.384,-0.61002 -2.89799,-0.61002c-0.51401,0 -1.97101,-0.354 -3.23601,-0.78598c-1.26601,-0.43201 -3.495,-0.97202 -4.953,-1.20001c-1.45799,-0.22699 -3.258,-0.664 -4,-0.96899c-0.74199,-0.306 -2.33899,-0.68802 -3.549,-0.84802c-1.21001,-0.16098 -2.83,-0.53998 -3.60001,-0.84399c-0.76999,-0.30298 -2.75,-0.806 -4.39999,-1.11798c-1.64999,-0.31201 -3.99001,-0.83401 -5.2,-1.16c-3.8,-1.02499 -7.608,-1.93301 -17.7,-4.224c-1.815,-0.41202 -4.38,-1.03201 -5.70001,-1.379c-4.78299,-1.254 -7.657,-1.931 -10.59999,-2.49802c-1.65001,-0.31699 -3.45,-0.91098 -4,-1.319l-1,-0.741l-0.10201,-40.26099l-0.10201,-40.26102l1.302,-1.18399c1.52901,-1.39101 1.399,-1.368 3.588,-0.629m55.414,5.69699c-0.38499,0.10001 -1.015,0.10001 -1.39999,0c-0.38499,-0.10098 -0.07001,-0.18298 0.7,-0.18298c0.77,0 1.08501,0.082 0.7,0.18298m-77.36699,2.12399c-2.33701,1.79401 -2.463,3.02002 -0.461,4.51401c2.52299,1.884 7.515,-3.354 5.19699,-5.452c-1.153,-1.043 -2.504,-0.77499 -4.73599,0.93799m-25.51,0.08902c-1.84,2.62601 -0.437,7.51099 2.157,7.51099c1.87,0 2.02,-0.31299 2.02,-4.19998c0,-3.88702 -0.14999,-4.20001 -2.02,-4.20001c-1.132,0 -1.698,0.233 -2.157,0.88901m146.581,3.99899c-2.30099,2.46899 0.198,5.07501 4.896,5.10699c1.66101,0.01199 3.168,-3.41098 1.858,-4.22101c-1.75299,-1.08298 -6.04599,-1.646 -6.754,-0.88599m-133.776,5.17099c-2.039,1.79501 -2.206,2.896 -0.674,4.45801c1.31099,1.33801 6.04599,-1.55099 6.04599,-3.689c0,-2.772 -2.66299,-3.15399 -5.37199,-0.76901m149.49899,-1.207c-0.548,0.66702 -0.80399,2.776 -0.414,3.40802c0.55899,0.90399 6.298,1.89999 6.98599,1.21198c1.082,-1.08197 0.86902,-3.56 -0.35699,-4.159c-1.681,-0.81998 -5.67599,-1.116 -6.215,-0.461m31.95901,8.11902c-1.23502,2.70999 -0.78802,3.216 3.82898,4.341c2.92001,0.711 3.86401,0.03598 3.612,-2.58102c-0.23199,-2.41998 -6.46799,-3.89499 -7.44098,-1.75998m-194.35401,0.13898c-0.258,0.164 -0.6,0.83603 -0.76,1.49402c-0.16,0.65799 -0.521,1.53198 -0.80299,1.94299c-0.98,1.43399 0.42799,3.45401 2.405,3.44901c4.239,-0.01199 5.45499,-0.85501 5.414,-3.75601c-0.03201,-2.332 -4.219,-4.42599 -6.256,-3.13m210.94801,3.20203c-1.74701,1.931 -1.11301,3.41199 1.87601,4.38199c4.017,1.302 5.65997,0.57199 5.36798,-2.38901c-0.177,-1.79401 -5.979,-3.39099 -7.24399,-1.99298m-96.071,1.10898c-2.22301,1.53702 -2.86301,2.70401 -2.23601,4.08002c0.851,1.867 2.243,1.879 4.86,0.04401c2.713,-1.90402 2.91901,-2.655 1.198,-4.37601c-1.43399,-1.43301 -1.37999,-1.43701 -3.82199,0.25198m-100.567,1.30099c-1.276,2.384 -0.535,3.302 3.49199,4.32602c3.377,0.85901 4.06601,0.50101 4.06601,-2.11499c0,-2.41302 -6.442,-4.29703 -7.558,-2.21103m-26.39201,5.04401c-4.161,3.121 -2.146,7.492 2.125,4.60901c3.13,-2.112 3.651,-3.38599 2.043,-4.99301c-1.279,-1.27899 -2.045,-1.20798 -4.168,0.384m113.757,3.168c-2.54399,1.867 -2.71899,2.616 -1.00999,4.32401l1.196,1.19699l1.562,-0.87799c2.68001,-1.50598 3.68701,-2.66199 3.39301,-3.896c-0.64101,-2.68301 -2.196,-2.909 -5.14101,-0.74701m-54.91199,-0.83398c-1.79401,2.22699 -0.97601,3.50699 2.94199,4.60699c3.787,1.06201 5.367,-0.14001 4.20401,-3.19901c-0.57901,-1.522 -6.16701,-2.62299 -7.146,-1.40799m16.795,3.36798c-0.869,0.35001 -1.76901,2.95502 -1.24001,3.59201c1.69,2.03601 7.89799,2.38501 7.996,0.45001c0.142,-2.80902 -0.063,-3.04202 -3.308,-3.73801c-2.799,-0.60001 -2.72701,-0.59399 -3.448,-0.30402m-88.592,3.60001c-2.464,1.82602 -2.792,3.02301 -1.251,4.56302l1.153,1.15198l2.09399,-1.19598c3.485,-1.991 4.172,-4.573 1.487,-5.59399c-1.37,-0.52103 -1.30099,-0.54202 -3.48299,1.07498m103.741,0.858c-0.72,1.34601 -0.524,2.80099 0.461,3.431c1.157,0.73901 4.93399,1.84302 6.306,1.84302c0.666,0 1.44499,0.42999 2.088,1.15198c1.162,1.30402 2.567,1.30701 3.744,0.00601c0.92699,-1.02399 1.868,-0.953 3.295,0.24701c3.556,2.99197 8.067,2.875 8.067,-0.21002c0,-2.05298 -0.84201,-2.59198 -5.037,-3.22498c-2.85001,-0.431 -3.328,-0.625 -4,-1.62802c-0.93401,-1.39499 -0.95201,-1.39499 -4.16301,0.052l-2.59999,1.172l-0.506,-1.19498c-0.85001,-2.00803 -6.77901,-3.28101 -7.655,-1.64502m-116.29501,8.20999c-2.284,1.57001 -2.839,3.51102 -1.382,4.83002c1.564,1.41501 6.746,-1.67801 6.236,-3.72299c-0.672,-2.69302 -2.08,-3.01401 -4.854,-1.10703m149.178,-1.07898c-1.024,0.41699 -1.481,2.966 -0.66701,3.72998c0.933,0.87701 5.502,2.14401 6.54201,1.81403c1.08,-0.34302 1.48799,-2.707 0.679,-3.94101c-0.763,-1.164 -5.05301,-2.21301 -6.554,-1.603m-34.174,3.345c-2.69301,1.423 -3.709,3.048 -2.84001,4.54199c1.22501,2.10599 4.02701,1.53699 6.392,-1.298c1.86,-2.229 -0.82799,-4.68298 -3.55199,-3.24399m67.131,4.319c-2.164,0.263 -2.44601,3.729 -0.36801,4.52399c4.20599,1.61002 6.11099,1.35101 6.63699,-0.90399c0.47702,-2.04599 -2.94699,-4.02402 -6.26898,-3.62m14.69699,5.07498c-0.97998,2.34601 1.63901,4.36502 5.552,4.28c4.80899,-0.104 2.384,-4.828 -2.827,-5.50598l-2.099,-0.27301l-0.62601,1.49899m-95.302,0.19601c-3.189,2.31 -3.49199,4.05399 -0.93399,5.37698c1.19901,0.62003 4.149,-1.095 5.536,-3.21899c1.52901,-2.34 -2.03999,-4.013 -4.60201,-2.15799m-13.07399,9.255c-2.476,1.84399 -2.82401,3.05399 -1.327,4.61499l1.20999,1.26199l1.459,-0.82898c3.412,-1.93802 4.325,-3.565 3.035,-5.40601c-0.85699,-1.224 -2.425,-1.09601 -4.377,0.358" id="path0"/>
  </g>
  <use stroke="#ff0000" fill="#7f00ff" x="587.50732" y="240.33781" transform="matrix(0.156478 0 0 0.130919 81.8605 152.63)" xlink:href="#svg_4" id="svg_5"/>
  <g id="svg_6"/>
 </g>
 <defs>
  <symbol viewBox="0 0 400 432.4324324324324" height="432.43243" width="400" id="svg_4" xmlns:xlink="http://www.w3.org/1999/xlink" xmlns="http://www.w3.org/2000/svg">
   <g id="svg_2">
    <path fill-rule="evenodd" fill="#ffffff" d="m161,30.237c-2.72099,0.653 -8.526,2.779 -9.2,3.369c-0.44,0.385 -1.39801,1.003 -2.12801,1.372c-3.55699,1.799 -8.119,6.046 -9.086,8.458c-0.345,0.86 -1.05,2.374 -1.567,3.364c-0.56799,1.09 -1.289,3.81 -1.82399,6.893l-0.88501,5.093l0.892,5.107c0.49501,2.839 1.38301,6.262 1.99701,7.707c0.608,1.43 1.23,3.32 1.38199,4.2c0.15201,0.88 0.71201,2.532 1.24501,3.671c0.534,1.139 1.17299,3.029 1.422,4.2c0.248,1.17101 0.86299,2.946 1.366,3.945c0.50301,0.999 1.103,2.83601 1.334,4.083c0.23,1.247 0.78799,2.991 1.239,3.876c0.451,0.884 1.101,2.827 1.44301,4.316c0.343,1.49 0.89099,3.122 1.218,3.627c0.32599,0.505 0.933,2.245 1.34799,3.868c0.41499,1.622 1.105,3.639 1.533,4.48199c0.42799,0.842 1,2.61201 1.271,3.93201c0.272,1.32 0.901,3.21 1.39999,4.2c0.49901,0.99 1.12801,2.88 1.40001,4.2c0.271,1.32 0.843,3.09 1.271,3.93201c0.42799,0.843 1.118,2.86 1.533,4.48199c0.41499,1.623 1.022,3.36301 1.34799,3.868c0.32701,0.505 0.875,2.13701 1.218,3.627c0.342,1.48901 0.957,3.37901 1.367,4.20001c0.409,0.81999 1.052,2.75099 1.429,4.291c0.37599,1.53999 0.933,3.18399 1.237,3.65199c0.304,0.46899 0.916,2.30901 1.35899,4.089c0.44301,1.78099 1.07401,3.64799 1.403,4.14999c1.45401,2.21901 2.298,8.446 1.20201,8.866c-1.08301,0.416 -4.99901,0.26401 -9.08801,-0.353c-7.284,-1.09799 -10.786,-1.149 -17.879,-0.26199c-3.62999,0.45399 -8.84,1.02699 -11.577,1.27299c-2.996,0.269 -6.196,0.832 -8.04,1.414c-1.685,0.532 -4.543,1.226 -6.351,1.54199c-1.80901,0.31601 -3.693,0.839 -4.187,1.16301c-0.494,0.32399 -2.197,0.97499 -3.784,1.448c-1.586,0.472 -3.464,1.19499 -4.173,1.606c-0.708,0.411 -2.086,0.95799 -3.061,1.215c-0.975,0.257 -2.412,0.901 -3.193,1.43201c-0.781,0.53099 -1.596,0.965 -1.812,0.965c-0.65,0 -7.93201,3.672 -9.26,4.67c-0.681,0.511 -1.439,0.92999 -1.686,0.92999c-0.24599,0 -1.03899,0.51401 -1.76199,1.14101c-0.723,0.62801 -1.742,1.366 -2.264,1.64101c-0.523,0.27499 -1.783,1.10799 -2.8,1.851c-1.018,0.74399 -2.535,1.84999 -3.373,2.459c-8.58,6.241 -19.773,17.54399 -21.797,22.01199c-0.374,0.825 -1.071,2.129 -1.55,2.89799c-1.857,2.985 -2.575,10.76501 -1.511,16.373c1.32,6.95601 8.441,16.985 13.674,19.25601c0.931,0.40399 2.191,1.10199 2.8,1.55099c1.07101,0.789 11.498,2.60001 12.659,2.198c0.246,-0.08499 2.608,-0.431 5.248,-0.76801c3.582,-0.45599 5.054,-0.81799 5.8,-1.42299c0.55,-0.446 1.62901,-1.097 2.398,-1.446c1.891,-0.86 3.619,-2.25801 6.544,-5.295c5.961,-6.19101 6.87901,-7.035 9.32401,-8.569c0.917,-0.576 1.779,-1.229 1.917,-1.451c0.138,-0.22301 1.008,-0.741 1.934,-1.15201c0.925,-0.40999 1.922,-1.036 2.215,-1.39099c0.293,-0.354 1.18,-0.858 1.973,-1.12001c0.793,-0.26099 2.25301,-0.98999 3.246,-1.62c0.993,-0.63 1.995,-1.146 2.227,-1.146c0.232,-0.00101 1.672,-0.631 3.19901,-1.40001c1.527,-0.76999 3.09999,-1.39899 3.494,-1.39899c0.394,0 2.30099,-0.526 4.23599,-1.16901c8.41701,-2.797 26.856,-2.82001 35.28,-0.045c1.877,0.619 4.043,1.258 4.813,1.42101c0.77,0.16299 2.37,0.81299 3.556,1.44499c1.186,0.631 2.466,1.14799 2.84399,1.14799c0.37901,0 1.33101,0.436 2.11601,0.96901c0.78499,0.53299 2.25999,1.33699 3.276,1.786c2.08899,0.924 2.907,1.51201 7.52899,5.412c7.74001,6.532 14.69,14.298 17.455,19.50401c0.66299,1.24899 1.37599,2.37598 1.584,2.50497c0.209,0.12802 0.685,1.17603 1.05901,2.32901c0.37399,1.15201 1.002,2.63501 1.39699,3.29501c0.39401,0.65997 1.00801,2.61499 1.36301,4.34399c0.355,1.72998 0.89,3.62 1.188,4.19998c2.64,5.14502 2.659,28.76801 0.028,34.056c-0.274,0.55002 -0.795,2.32001 -1.158,3.93301c-0.364,1.61301 -0.923,3.332 -1.244,3.82098c-0.31999,0.48901 -0.946,1.94702 -1.39099,3.24002c-0.44501,1.29199 -1.06401,2.633 -1.377,2.978c-0.31201,0.345 -0.942,1.50101 -1.40001,2.569c-0.457,1.06699 -1.2,2.41699 -1.651,3c-0.79399,1.02701 -1.703,2.31799 -3.72499,5.29199c-2.73201,4.017 -13.24301,13.62399 -16.972,15.51199c-0.593,0.30002 -1.70801,0.96902 -2.479,1.487c-0.772,0.51801 -2.032,1.15802 -2.8,1.423c-0.769,0.26501 -2.028,0.89001 -2.798,1.38901c-0.76999,0.49899 -1.93999,1.03101 -2.59999,1.18201c-0.66,0.151 -2.125,0.79401 -3.256,1.42798c-1.57001,0.88101 -3.082,1.29202 -6.40001,1.73901c-2.38899,0.32101 -5.694,0.89301 -7.34399,1.26999c-4.53,1.035 -14.172,0.948 -19.40001,-0.17398c-2.2,-0.47302 -5.53,-1.05801 -7.39999,-1.302c-2.15601,-0.28 -3.985,-0.77899 -5,-1.36401c-0.88,-0.50699 -2.611,-1.21298 -3.848,-1.569c-1.236,-0.35498 -2.454,-0.89499 -2.706,-1.19901c-0.252,-0.30399 -1.507,-0.935 -2.789,-1.40198c-1.281,-0.46701 -2.656,-1.21002 -3.055,-1.651c-0.39999,-0.44101 -0.943,-0.802 -1.209,-0.802c-2.41199,0 -18.689,-15.957 -21.169,-20.754c-0.355,-0.685 -0.8,-1.246 -0.99,-1.246c-0.19,0 -0.747,-0.85501 -1.237,-1.89999c-0.49,-1.04501 -1.204,-2.35001 -1.587,-2.90002c-0.384,-0.54999 -1.02,-1.98999 -1.415,-3.19998c-0.395,-1.20999 -0.954,-2.564 -1.243,-3.009c-0.288,-0.44501 -0.805,-2.155 -1.147,-3.80002c-0.342,-1.64499 -0.965,-4.07098 -1.385,-5.39099c-1.099,-3.45099 -1.191,-4.10699 -1.592,-11.25101c-0.288,-5.13498 -0.52299,-6.767 -1.153,-8.00198c-0.435,-0.853 -1.006,-2.36002 -1.269,-3.349c-0.263,-0.98901 -0.799,-2.15799 -1.192,-2.59799c-0.393,-0.44 -0.942,-1.25 -1.22,-1.80002c-1.6,-3.16098 -6.347,-7.72501 -10.333,-9.936c-0.658,-0.36499 -1.762,-0.98898 -2.453,-1.38699c-3.811,-2.19199 -19.515,-2.091 -23.008,0.14801c-0.66,0.423 -1.829,1.061 -2.598,1.418c-1.71,0.79498 -3.443,2.15799 -5.92,4.65601c-5.895,5.948 -8.486,12.164 -8.479,20.341c0.005,5.22699 1.464,19.53998 2.199,21.56c0.36,0.98999 0.991,3.543 1.402,5.67398c0.412,2.13 1.017,4.39301 1.345,5.02802c0.329,0.63498 0.978,2.647 1.444,4.47098c0.466,1.82303 1.121,3.73401 1.455,4.24503c0.335,0.51099 0.946,2.03998 1.357,3.39798c0.411,1.35699 0.997,2.76401 1.303,3.12601c0.306,0.362 0.884,1.54501 1.284,2.629c0.401,1.08401 1.151,2.59399 1.668,3.35602c0.517,0.76099 0.94,1.60898 0.94,1.88397c0,0.27502 0.59,1.37402 1.312,2.444c0.721,1.07001 1.535,2.39502 1.808,2.94501c0.274,0.55002 0.898,1.565 1.389,2.25601c0.49,0.69098 1.205,1.771 1.589,2.39999c4.981,8.15799 11.428,15.73599 19.932,23.431c4.507,4.077 6.195,5.44501 12.091,9.79102c0.837,0.61697 2.09699,1.59198 2.8,2.16699c0.703,0.57401 1.909,1.36099 2.679,1.74799c0.77,0.38699 1.677,0.94601 2.016,1.241c0.564,0.49301 3.987,2.37802 6.36,3.50302c0.536,0.25497 2.114,1.04797 3.505,1.763c1.39201,0.715 2.75301,1.30099 3.025,1.30099c0.272,0.00101 1.744,0.63098 3.271,1.39999c1.527,0.76999 3.06,1.39899 3.406,1.39899c0.346,0 1.731,0.53702 3.077,1.194c1.347,0.65701 3.41399,1.39801 4.59399,1.64603c1.18,0.24799 2.956,0.81598 3.946,1.26199c0.99001,0.44598 3.51,1.06 5.60001,1.36499c2.09,0.30402 4.88,0.94901 6.2,1.43201c3.18201,1.16501 38.65199,1.612 42.85699,0.54001c1.289,-0.32901 3.33301,-0.854 4.543,-1.16702c1.21001,-0.31198 3.466,-0.76398 5.01201,-1.004c1.547,-0.23898 3.647,-0.80499 4.66699,-1.25598c1.02,-0.45102 2.81201,-1.00201 3.983,-1.224c1.17,-0.22202 2.951,-0.83401 3.957,-1.36002c1.006,-0.526 2.60701,-1.16599 3.55901,-1.422c0.951,-0.25601 2.37999,-0.88901 3.17599,-1.40601c0.795,-0.517 2.188,-1.134 3.09401,-1.37198c0.90599,-0.23703 2.07599,-0.76501 2.59999,-1.17401c0.524,-0.409 1.40201,-0.884 1.952,-1.05499c1.45601,-0.45401 8.27701,-4.04401 9.48001,-4.99002c0.565,-0.44498 1.25999,-0.80899 1.543,-0.80899c0.284,0 1.024,-0.41599 1.646,-0.92499c0.62199,-0.50803 1.94099,-1.41602 2.931,-2.01801c3.034,-1.84399 4.448,-2.966 8.55,-6.78201c5.188,-4.827 10.261,-9.89899 13.319,-13.31598c2.258,-2.522 3.12199,-3.561 6.459,-7.759c0.612,-0.77002 1.52299,-2.07501 2.02499,-2.90002c0.502,-0.82498 1.056,-1.5 1.231,-1.5c0.175,0 0.545,-0.54599 0.821,-1.21298c0.27701,-0.66699 1.01099,-1.85202 1.633,-2.63501c0.62201,-0.78198 1.24802,-1.811 1.39301,-2.28699c0.14401,-0.47601 0.67499,-1.41602 1.17899,-2.09c0.50403,-0.67401 1.21301,-1.93402 1.57501,-2.80002c0.36099,-0.866 1.061,-2.02499 1.55499,-2.57498c0.49402,-0.55002 1.14502,-1.49503 1.44702,-2.10001c0.30099,-0.60501 0.694,-1.10001 0.87198,-1.10001c0.17902,0 0.71301,-0.76501 1.18701,-1.70001c0.474,-0.935 1.332,-2.284 1.90799,-2.99799c2.44299,-3.03 3.15302,-3.99802 4.18002,-5.702c0.59698,-0.99002 1.71198,-2.61002 2.478,-3.60001c0.767,-0.98999 1.73999,-2.34 2.164,-3c0.42297,-0.66 1.14697,-1.73999 1.60898,-2.39999c0.46201,-0.66 1.28101,-1.83002 1.82101,-2.60001c0.54001,-0.76999 1.32898,-1.94 1.75299,-2.60001c0.42502,-0.66 1.246,-1.82999 1.82501,-2.60001c1.51801,-2.01797 2.91098,-4.02798 3.716,-5.35898c0.38498,-0.638 1.16998,-1.71802 1.745,-2.40002c0.57401,-0.68298 1.35001,-1.78098 1.724,-2.44098c0.37399,-0.66 1.39398,-2.19 2.267,-3.39999c2.14999,-2.98001 4.396,-6.241 5.36398,-7.78802c0.44,-0.702 1.25,-1.82999 1.80002,-2.50497c1.05701,-1.29703 3.16998,-4.30103 4.436,-6.30701c0.41699,-0.66 1.39099,-2.01001 2.164,-3c1.36298,-1.74402 2.034,-2.71802 3.49899,-5.07602c0.384,-0.61798 1.24399,-1.84399 1.91,-2.724c1.452,-1.918 3.88498,-5.422 4.991,-7.18799c0.44,-0.702 1.29498,-1.862 1.89999,-2.57501c0.60501,-0.71399 1.10001,-1.448 1.10001,-1.62997c0,-0.18201 0.58499,-1.048 1.29999,-1.923c0.715,-0.875 1.61502,-2.10699 2,-2.73801c0.76501,-1.25101 2.31201,-3.48401 3.28799,-4.746c0.341,-0.44 1.203,-1.68399 1.91602,-2.76501c2.194,-3.32599 2.61099,-3.92398 3.48898,-4.99698c0.84201,-1.03101 2.62201,-3.68001 4.263,-6.34601c0.47101,-0.765 1.07602,-1.526 1.34402,-1.692c0.26797,-0.166 0.87299,-0.927 1.34399,-1.692c1.65601,-2.69099 3.42499,-5.314 3.98199,-5.90799c0.55301,-0.589 2.09,-2.83701 3.67401,-5.375c0.44,-0.705 1.215,-1.80901 1.72299,-2.453c1.16101,-1.47501 2.668,-3.631 3.577,-5.118c0.38501,-0.63 1.13501,-1.8 1.66599,-2.60001c0.53101,-0.8 1.40002,-2.62401 1.93201,-4.054c0.53101,-1.42999 1.245,-3.32001 1.58701,-4.2c2.07599,-5.347 0.159,-15.94901 -3.991,-22.075c-1.672,-2.46701 -7.655,-8.52501 -8.42001,-8.52501c-0.29498,0 -1.35098,-0.539 -2.345,-1.198c-1.349,-0.89301 -3.254,-1.52 -7.49799,-2.465l-5.689,-1.267l-3.871,0.851c-2.129,0.468 -4.867,1.024 -6.08499,1.235c-3.54602,0.61299 -10.07602,5.38499 -13.41101,9.8c-2.785,3.68599 -3.392,4.55199 -4.539,6.47099c-0.66599,1.114 -1.57599,2.35699 -2.02301,2.76201c-0.44699,0.40399 -0.81299,0.94899 -0.81299,1.211c0,0.26199 -0.35699,0.799 -0.793,1.194c-0.43701,0.39499 -1.33801,1.638 -2.00299,2.76199c-0.66602,1.12399 -1.84,2.854 -2.61002,3.84399c-0.76999,0.99001 -1.75,2.34001 -2.177,3c-0.90399,1.39801 -3.14899,4.65401 -4.021,5.83301c-0.69199,0.937 -1.83301,0.70999 -2.19699,-0.437c-0.33099,-1.041 0.875,-14.72501 1.56,-17.70201c0.63101,-2.745 1.259,-8.039 1.64899,-13.894c0.13901,-2.09 0.58401,-5.59999 0.98901,-7.8c1.08398,-5.89999 1.134,-6.28799 1.61398,-12.59999c0.24301,-3.19 0.77701,-7.60001 1.18701,-9.8c0.88901,-4.772 1.08002,-6.347 1.61801,-13.336c0.22498,-2.935 0.755,-7.09 1.17798,-9.233c0.422,-2.14301 1.04901,-7.212 1.39401,-11.264c0.34399,-4.052 0.88599,-8.597 1.20499,-10.099c0.54703,-2.581 0.75201,-4.295 1.85101,-15.468c0.88,-8.936 0.879,-10.062 -0.00299,-14.386c-0.461,-2.264 -1.24402,-4.769 -1.73801,-5.56499c-0.495,-0.797 -1.306,-2.259 -1.802,-3.249c-2.36899,-4.72 -8.52499,-10.05 -13.14001,-11.378c-1.07898,-0.31 -3.04099,-0.955 -4.36099,-1.433c-3.55099,-1.288 -11.996,-1.02 -15.79999,0.5c-1.42999,0.571 -2.965,1.144 -3.41202,1.274c-2.776,0.804 -9.83998,6.915 -11.38699,9.85c-0.286,0.543 -0.939,1.491 -1.45099,2.106c-0.511,0.615 -1.192,1.965 -1.51201,3c-0.319,1.035 -0.936,2.871 -1.369,4.081c-0.534,1.491 -0.939,4.262 -1.258,8.6c-0.258,3.52 -0.819,8.2 -1.24699,10.4c-0.42801,2.2 -1.048,7.24 -1.379,11.2c-0.33,3.96 -0.95801,9.09 -1.39601,11.4c-0.437,2.31 -1.064,7.44 -1.394,11.39999c-0.32899,3.96001 -0.948,8.91 -1.37399,11c-0.427,2.09001 -0.97,6.41 -1.207,9.60001c-0.83301,11.196 -1.14801,12.382 -3.29901,12.394c-1.06299,0.006 -2.30499,-2.547 -2.319,-4.767c-0.002,-0.345 -0.452,-1.591 -1.00099,-2.769c-0.548,-1.17801 -1.265,-3.297 -1.592,-4.70801c-0.328,-1.41199 -0.94701,-3.256 -1.37601,-4.09799c-0.42999,-0.842 -1.06,-2.73199 -1.39999,-4.2c-0.341,-1.46701 -0.88,-3.07001 -1.198,-3.56c-0.31801,-0.49101 -0.88701,-2.15201 -1.263,-3.692c-0.377,-1.54001 -1.02,-3.47101 -1.429,-4.291c-0.41,-0.821 -1.02301,-2.69301 -1.364,-4.16101c-0.34001,-1.46799 -0.955,-3.328 -1.36501,-4.133c-0.411,-0.804 -1.04401,-2.611 -1.408,-4.015c-0.364,-1.404 -0.987,-3.193 -1.384,-3.976c-0.39799,-0.783 -0.94499,-2.50401 -1.21599,-3.82401c-0.272,-1.32 -0.901,-3.21 -1.40001,-4.2c-0.49899,-0.99 -1.12799,-2.88 -1.39999,-4.2c-0.271,-1.32 -0.843,-3.09 -1.271,-3.93201c-0.42801,-0.84299 -1.11801,-2.85999 -1.533,-4.48199c-0.41501,-1.623 -1.022,-3.363 -1.34801,-3.868c-0.327,-0.505 -0.875,-2.137 -1.218,-3.627c-0.342,-1.489 -0.95699,-3.379 -1.36699,-4.2c-0.409,-0.82 -1.048,-2.728 -1.42,-4.24001c-0.37201,-1.51099 -1.00801,-3.40099 -1.41301,-4.2c-0.40599,-0.798 -0.94499,-2.456 -1.198,-3.684c-0.254,-1.228 -0.819,-2.9 -1.256,-3.716c-0.437,-0.81599 -1.071,-2.674 -1.408,-4.128c-0.338,-1.454 -0.953,-3.31 -1.368,-4.123c-0.41499,-0.813 -1.033,-2.68 -1.373,-4.148c-0.341,-1.468 -0.96201,-3.341 -1.381,-4.163c-0.42,-0.821 -0.979,-2.302 -1.244,-3.291c-0.95999,-3.587 -7.284,-11.39 -10.60201,-13.082c-0.65999,-0.337 -1.508,-0.882 -1.88399,-1.212c-2.47301,-2.167 -14.52701,-4.424 -18.51601,-3.467" id="svg_3"/>
   </g>
  </symbol>
 </defs>
</svg>