<?xml version="1.0"?>
<svg xmlns="http://www.w3.org/2000/svg" height="32px" viewBox="0 -16 370.7 370" width="32px" class=""><g><path d="m330.699219 338.949219h-134.199219c-22.09375.007812-40.007812-17.90625-40-40v-34.898438c0-5.523437 4.476562-10 10-10s10 4.476563 10 10v34.898438c.03125 11.03125 8.96875 19.96875 20 20h134.199219c11.03125-.03125 19.96875-8.96875 20-20v-258.597657c-.03125-11.035156-8.96875-19.96875-20-20h-134.199219c-11.03125.03125-19.96875 8.964844-20 20v35.699219c0 5.523438-4.476562 10-10 10s-10-4.476562-10-10v-35.699219c-.007812-22.09375 17.90625-40.007812 40-40h134.199219c22.09375-.007812 40.007812 17.90625 40 40v258.597657c.007812 22.09375-17.90625 40.007812-40 40zm0 0" fill="#e48e66" data-original="#E48E66" class="active-path" style="fill:#777777" data-old_color="#E48E66"/><path d="m10.101562 169.449219h238.898438l-51.300781 59.101562c-3.671875 4.113281-3.3125 10.425781.800781 14.097657 4.113281 3.675781 10.425781 3.316406 14.101562-.796876.097657-.101562.199219-.203124.199219-.300781l64.699219-74.5c4.214844-3.554687 4.792969-9.835937 1.300781-14.101562-.527343-.640625-1.132812-1.210938-1.800781-1.699219l-64.699219-64.699219c-3.894531-3.894531-10.207031-3.894531-14.101562 0s-3.894531 10.207031 0 14.097657l48.601562 48.601562h-236.699219c-5.578124 0-10.101562 4.523438-10.101562 10.101562 0 5.578126 4.523438 10.097657 10.101562 10.097657zm0 0" fill="#e2d574" data-original="#E2D574" class="" style="fill:#D94F5C" data-old_color="#d94f5c"/></g> </svg>
