<svg id="svg" version="1.1" width="400" height="432.4324324324324" viewBox="0 0 400 432.4324324324324" xmlns="http://www.w3.org/2000/svg" xmlns:xlink="http://www.w3.org/1999/xlink" ><g id="svgg"><path id="path0" d="M161.000 30.237 C 158.279 30.890,152.474 33.016,151.800 33.606 C 151.360 33.991,150.402 34.609,149.672 34.978 C 146.115 36.777,141.553 41.024,140.586 43.436 C 140.241 44.296,139.536 45.810,139.019 46.800 C 138.451 47.890,137.730 50.610,137.195 53.693 L 136.310 58.786 137.202 63.893 C 137.697 66.732,138.585 70.155,139.199 71.600 C 139.807 73.030,140.429 74.920,140.581 75.800 C 140.733 76.680,141.293 78.332,141.826 79.471 C 142.360 80.610,142.999 82.500,143.248 83.671 C 143.496 84.842,144.111 86.617,144.614 87.616 C 145.117 88.615,145.717 90.452,145.948 91.699 C 146.178 92.946,146.736 94.690,147.187 95.575 C 147.638 96.459,148.288 98.402,148.630 99.891 C 148.973 101.381,149.521 103.013,149.848 103.518 C 150.174 104.023,150.781 105.763,151.196 107.386 C 151.611 109.008,152.301 111.025,152.729 111.868 C 153.157 112.710,153.729 114.480,154.000 115.800 C 154.272 117.120,154.901 119.010,155.400 120.000 C 155.899 120.990,156.528 122.880,156.800 124.200 C 157.071 125.520,157.643 127.290,158.071 128.132 C 158.499 128.975,159.189 130.992,159.604 132.614 C 160.019 134.237,160.626 135.977,160.952 136.482 C 161.279 136.987,161.827 138.619,162.170 140.109 C 162.512 141.598,163.127 143.488,163.537 144.309 C 163.946 145.129,164.589 147.060,164.966 148.600 C 165.342 150.140,165.899 151.784,166.203 152.252 C 166.507 152.721,167.119 154.561,167.562 156.341 C 168.005 158.122,168.636 159.989,168.965 160.491 C 170.419 162.710,171.263 168.937,170.167 169.357 C 169.084 169.773,165.168 169.621,161.079 169.004 C 153.795 167.906,150.293 167.855,143.200 168.742 C 139.570 169.196,134.360 169.769,131.623 170.015 C 128.627 170.284,125.427 170.847,123.583 171.429 C 121.898 171.961,119.040 172.655,117.232 172.971 C 115.423 173.287,113.539 173.810,113.045 174.134 C 112.551 174.458,110.848 175.109,109.261 175.582 C 107.675 176.054,105.797 176.777,105.088 177.188 C 104.380 177.599,103.002 178.146,102.027 178.403 C 101.052 178.660,99.615 179.304,98.834 179.835 C 98.053 180.366,97.238 180.800,97.022 180.800 C 96.372 180.800,89.090 184.472,87.762 185.470 C 87.081 185.981,86.323 186.400,86.076 186.400 C 85.830 186.400,85.037 186.914,84.314 187.541 C 83.591 188.169,82.572 188.907,82.050 189.182 C 81.527 189.457,80.267 190.290,79.250 191.033 C 78.232 191.777,76.715 192.883,75.877 193.492 C 67.297 199.733,56.104 211.036,54.080 215.504 C 53.706 216.329,53.009 217.633,52.530 218.402 C 50.673 221.387,49.955 229.167,51.019 234.775 C 52.339 241.731,59.460 251.760,64.693 254.031 C 65.624 254.435,66.884 255.133,67.493 255.582 C 68.564 256.371,78.991 258.182,80.152 257.780 C 80.398 257.695,82.760 257.349,85.400 257.012 C 88.982 256.556,90.454 256.194,91.200 255.589 C 91.750 255.143,92.829 254.492,93.598 254.143 C 95.489 253.283,97.217 251.885,100.142 248.848 C 106.103 242.657,107.021 241.813,109.466 240.279 C 110.383 239.703,111.245 239.050,111.383 238.828 C 111.521 238.605,112.391 238.087,113.317 237.676 C 114.242 237.266,115.239 236.640,115.532 236.285 C 115.825 235.931,116.712 235.427,117.505 235.165 C 118.298 234.904,119.758 234.175,120.751 233.545 C 121.744 232.915,122.746 232.399,122.978 232.399 C 123.210 232.398,124.650 231.768,126.177 230.999 C 127.704 230.229,129.277 229.600,129.671 229.600 C 130.065 229.600,131.972 229.074,133.907 228.431 C 142.324 225.634,160.763 225.611,169.187 228.386 C 171.064 229.005,173.230 229.644,174.000 229.807 C 174.770 229.970,176.370 230.620,177.556 231.252 C 178.742 231.883,180.022 232.400,180.400 232.400 C 180.779 232.400,181.731 232.836,182.516 233.369 C 183.301 233.902,184.776 234.706,185.792 235.155 C 187.881 236.079,188.699 236.667,193.321 240.567 C 201.061 247.099,208.011 254.865,210.776 260.071 C 211.439 261.320,212.152 262.447,212.360 262.576 C 212.569 262.704,213.045 263.752,213.419 264.905 C 213.793 266.057,214.421 267.540,214.816 268.200 C 215.210 268.860,215.824 270.815,216.179 272.544 C 216.534 274.274,217.069 276.164,217.367 276.744 C 220.007 281.889,220.026 305.512,217.395 310.800 C 217.121 311.350,216.600 313.120,216.237 314.733 C 215.873 316.346,215.314 318.065,214.993 318.554 C 214.673 319.043,214.047 320.501,213.602 321.794 C 213.157 323.086,212.538 324.427,212.225 324.772 C 211.913 325.117,211.283 326.273,210.825 327.341 C 210.368 328.408,209.625 329.758,209.174 330.341 C 208.380 331.368,207.471 332.659,205.449 335.633 C 202.717 339.650,192.206 349.257,188.477 351.145 C 187.884 351.445,186.769 352.114,185.998 352.632 C 185.226 353.150,183.966 353.790,183.198 354.055 C 182.429 354.320,181.170 354.945,180.400 355.444 C 179.630 355.943,178.460 356.475,177.800 356.626 C 177.140 356.777,175.675 357.420,174.544 358.054 C 172.974 358.935,171.462 359.346,168.144 359.793 C 165.755 360.114,162.450 360.686,160.800 361.063 C 156.270 362.098,146.628 362.011,141.400 360.889 C 139.200 360.416,135.870 359.831,134.000 359.587 C 131.844 359.307,130.015 358.808,129.000 358.223 C 128.120 357.716,126.389 357.010,125.152 356.654 C 123.916 356.299,122.698 355.759,122.446 355.455 C 122.194 355.151,120.939 354.520,119.657 354.053 C 118.376 353.586,117.001 352.843,116.602 352.402 C 116.202 351.961,115.659 351.600,115.393 351.600 C 112.981 351.600,96.704 335.643,94.224 330.846 C 93.869 330.161,93.424 329.600,93.234 329.600 C 93.044 329.600,92.487 328.745,91.997 327.700 C 91.507 326.655,90.793 325.350,90.410 324.800 C 90.026 324.250,89.390 322.810,88.995 321.600 C 88.600 320.390,88.041 319.036,87.752 318.591 C 87.464 318.146,86.947 316.436,86.605 314.791 C 86.263 313.146,85.640 310.720,85.220 309.400 C 84.121 305.949,84.029 305.293,83.628 298.149 C 83.340 293.014,83.105 291.382,82.475 290.147 C 82.040 289.294,81.469 287.787,81.206 286.798 C 80.943 285.809,80.407 284.640,80.014 284.200 C 79.621 283.760,79.072 282.950,78.794 282.400 C 77.194 279.239,72.447 274.675,68.461 272.464 C 67.803 272.099,66.699 271.475,66.008 271.077 C 62.197 268.885,46.493 268.986,43.000 271.225 C 42.340 271.648,41.171 272.286,40.402 272.643 C 38.692 273.438,36.959 274.801,34.482 277.299 C 28.587 283.247,25.996 289.463,26.003 297.640 C 26.008 302.867,27.467 317.180,28.202 319.200 C 28.562 320.190,29.193 322.743,29.604 324.874 C 30.016 327.004,30.621 329.267,30.949 329.902 C 31.278 330.537,31.927 332.549,32.393 334.373 C 32.859 336.196,33.514 338.107,33.848 338.618 C 34.183 339.129,34.794 340.658,35.205 342.016 C 35.616 343.373,36.202 344.780,36.508 345.142 C 36.814 345.504,37.392 346.687,37.792 347.771 C 38.193 348.855,38.943 350.365,39.460 351.127 C 39.977 351.888,40.400 352.736,40.400 353.011 C 40.400 353.286,40.990 354.385,41.712 355.455 C 42.433 356.525,43.247 357.850,43.520 358.400 C 43.794 358.950,44.418 359.965,44.909 360.656 C 45.399 361.347,46.114 362.427,46.498 363.056 C 51.479 371.214,57.926 378.792,66.430 386.487 C 70.937 390.564,72.625 391.932,78.521 396.278 C 79.358 396.895,80.618 397.870,81.321 398.445 C 82.024 399.019,83.230 399.806,84.000 400.193 C 84.770 400.580,85.677 401.139,86.016 401.434 C 86.580 401.927,90.003 403.812,92.376 404.937 C 92.912 405.192,94.490 405.985,95.881 406.700 C 97.273 407.415,98.634 408.001,98.906 408.001 C 99.178 408.002,100.650 408.632,102.177 409.401 C 103.704 410.171,105.237 410.800,105.583 410.800 C 105.929 410.800,107.314 411.337,108.660 411.994 C 110.007 412.651,112.074 413.392,113.254 413.640 C 114.434 413.888,116.210 414.456,117.200 414.902 C 118.190 415.348,120.710 415.962,122.800 416.267 C 124.890 416.571,127.680 417.216,129.000 417.699 C 132.182 418.864,167.652 419.311,171.857 418.239 C 173.146 417.910,175.190 417.385,176.400 417.072 C 177.610 416.760,179.866 416.308,181.412 416.068 C 182.959 415.829,185.059 415.263,186.079 414.812 C 187.099 414.361,188.891 413.810,190.062 413.588 C 191.232 413.366,193.013 412.754,194.019 412.228 C 195.025 411.702,196.626 411.062,197.578 410.806 C 198.529 410.550,199.958 409.917,200.754 409.400 C 201.549 408.883,202.942 408.266,203.848 408.028 C 204.754 407.791,205.924 407.263,206.448 406.854 C 206.972 406.445,207.850 405.970,208.400 405.799 C 209.856 405.345,216.677 401.755,217.880 400.809 C 218.445 400.364,219.140 400.000,219.423 400.000 C 219.707 400.000,220.447 399.584,221.069 399.075 C 221.691 398.567,223.010 397.659,224.000 397.057 C 227.034 395.213,228.448 394.091,232.550 390.275 C 237.738 385.448,242.811 380.376,245.869 376.959 C 248.127 374.437,248.991 373.398,252.328 369.200 C 252.940 368.430,253.851 367.125,254.353 366.300 C 254.855 365.475,255.409 364.800,255.584 364.800 C 255.759 364.800,256.129 364.254,256.405 363.587 C 256.682 362.920,257.416 361.735,258.038 360.952 C 258.660 360.170,259.286 359.141,259.431 358.665 C 259.575 358.189,260.106 357.249,260.610 356.575 C 261.114 355.901,261.823 354.641,262.185 353.775 C 262.546 352.909,263.246 351.750,263.740 351.200 C 264.234 350.650,264.885 349.705,265.187 349.100 C 265.488 348.495,265.881 348.000,266.059 348.000 C 266.238 348.000,266.772 347.235,267.246 346.300 C 267.720 345.365,268.578 344.016,269.154 343.302 C 271.597 340.272,272.307 339.304,273.334 337.600 C 273.931 336.610,275.046 334.990,275.812 334.000 C 276.579 333.010,277.552 331.660,277.976 331.000 C 278.399 330.340,279.123 329.260,279.585 328.600 C 280.047 327.940,280.866 326.770,281.406 326.000 C 281.946 325.230,282.735 324.060,283.159 323.400 C 283.584 322.740,284.405 321.570,284.984 320.800 C 286.502 318.782,287.895 316.772,288.700 315.441 C 289.085 314.803,289.870 313.723,290.445 313.041 C 291.019 312.358,291.795 311.260,292.169 310.600 C 292.543 309.940,293.563 308.410,294.436 307.200 C 296.586 304.220,298.832 300.959,299.800 299.412 C 300.240 298.710,301.050 297.582,301.600 296.907 C 302.657 295.610,304.770 292.606,306.036 290.600 C 306.453 289.940,307.427 288.590,308.200 287.600 C 309.563 285.856,310.234 284.882,311.699 282.524 C 312.083 281.906,312.943 280.680,313.609 279.800 C 315.061 277.882,317.494 274.378,318.600 272.612 C 319.040 271.910,319.895 270.750,320.500 270.037 C 321.105 269.323,321.600 268.589,321.600 268.407 C 321.600 268.225,322.185 267.359,322.900 266.484 C 323.615 265.609,324.515 264.377,324.900 263.746 C 325.665 262.495,327.212 260.262,328.188 259.000 C 328.529 258.560,329.391 257.316,330.104 256.235 C 332.298 252.909,332.715 252.311,333.593 251.238 C 334.435 250.207,336.215 247.558,337.856 244.892 C 338.327 244.127,338.932 243.366,339.200 243.200 C 339.468 243.034,340.073 242.273,340.544 241.508 C 342.200 238.817,343.969 236.194,344.526 235.600 C 345.079 235.011,346.616 232.763,348.200 230.225 C 348.640 229.520,349.415 228.416,349.923 227.772 C 351.084 226.297,352.591 224.141,353.500 222.654 C 353.885 222.024,354.635 220.854,355.166 220.054 C 355.697 219.254,356.566 217.430,357.098 216.000 C 357.629 214.570,358.343 212.680,358.685 211.800 C 360.761 206.453,358.844 195.851,354.694 189.725 C 353.022 187.258,347.039 181.200,346.274 181.200 C 345.979 181.200,344.923 180.661,343.929 180.002 C 342.580 179.109,340.675 178.482,336.431 177.537 L 330.742 176.270 326.871 177.121 C 324.742 177.589,322.004 178.145,320.786 178.356 C 317.240 178.969,310.710 183.741,307.375 188.156 C 304.590 191.842,303.983 192.708,302.836 194.627 C 302.170 195.741,301.260 196.984,300.813 197.389 C 300.366 197.793,300.000 198.338,300.000 198.600 C 300.000 198.862,299.643 199.399,299.207 199.794 C 298.770 200.189,297.869 201.432,297.204 202.556 C 296.538 203.680,295.364 205.410,294.594 206.400 C 293.824 207.390,292.844 208.740,292.417 209.400 C 291.513 210.798,289.268 214.054,288.396 215.233 C 287.704 216.170,286.563 215.943,286.199 214.796 C 285.868 213.755,287.074 200.071,287.759 197.094 C 288.390 194.349,289.018 189.055,289.408 183.200 C 289.547 181.110,289.992 177.600,290.397 175.400 C 291.481 169.500,291.531 169.112,292.011 162.800 C 292.254 159.610,292.788 155.200,293.198 153.000 C 294.087 148.228,294.278 146.653,294.816 139.664 C 295.041 136.729,295.571 132.574,295.994 130.431 C 296.416 128.288,297.043 123.219,297.388 119.167 C 297.732 115.115,298.274 110.570,298.593 109.068 C 299.140 106.487,299.345 104.773,300.444 93.600 C 301.324 84.664,301.323 83.538,300.441 79.214 C 299.980 76.950,299.197 74.445,298.703 73.649 C 298.208 72.852,297.397 71.390,296.901 70.400 C 294.532 65.680,288.376 60.350,283.761 59.022 C 282.682 58.712,280.720 58.067,279.400 57.589 C 275.849 56.301,267.404 56.569,263.600 58.089 C 262.170 58.660,260.635 59.233,260.188 59.363 C 257.412 60.167,250.348 66.278,248.801 69.213 C 248.515 69.756,247.862 70.704,247.350 71.319 C 246.839 71.934,246.158 73.284,245.838 74.319 C 245.519 75.354,244.902 77.190,244.469 78.400 C 243.935 79.891,243.530 82.662,243.211 87.000 C 242.953 90.520,242.392 95.200,241.964 97.400 C 241.536 99.600,240.916 104.640,240.585 108.600 C 240.255 112.560,239.627 117.690,239.189 120.000 C 238.752 122.310,238.125 127.440,237.795 131.400 C 237.466 135.360,236.847 140.310,236.421 142.400 C 235.994 144.490,235.451 148.810,235.214 152.000 C 234.381 163.196,234.066 164.382,231.915 164.394 C 230.852 164.400,229.610 161.847,229.596 159.627 C 229.594 159.282,229.144 158.036,228.595 156.858 C 228.047 155.680,227.330 153.561,227.003 152.150 C 226.675 150.738,226.056 148.894,225.627 148.052 C 225.197 147.210,224.567 145.320,224.227 143.852 C 223.886 142.385,223.347 140.782,223.029 140.292 C 222.711 139.801,222.142 138.140,221.766 136.600 C 221.389 135.060,220.746 133.129,220.337 132.309 C 219.927 131.488,219.314 129.616,218.973 128.148 C 218.633 126.680,218.018 124.820,217.608 124.015 C 217.197 123.211,216.564 121.404,216.200 120.000 C 215.836 118.596,215.213 116.807,214.816 116.024 C 214.418 115.241,213.871 113.520,213.600 112.200 C 213.328 110.880,212.699 108.990,212.200 108.000 C 211.701 107.010,211.072 105.120,210.800 103.800 C 210.529 102.480,209.957 100.710,209.529 99.868 C 209.101 99.025,208.411 97.008,207.996 95.386 C 207.581 93.763,206.974 92.023,206.648 91.518 C 206.321 91.013,205.773 89.381,205.430 87.891 C 205.088 86.402,204.473 84.512,204.063 83.691 C 203.654 82.871,203.015 80.963,202.643 79.451 C 202.271 77.940,201.635 76.050,201.230 75.251 C 200.824 74.453,200.285 72.795,200.032 71.567 C 199.778 70.339,199.213 68.667,198.776 67.851 C 198.339 67.035,197.705 65.177,197.368 63.723 C 197.030 62.269,196.415 60.413,196.000 59.600 C 195.585 58.787,194.967 56.920,194.627 55.452 C 194.286 53.984,193.665 52.111,193.246 51.289 C 192.826 50.468,192.267 48.987,192.002 47.998 C 191.042 44.411,184.718 36.608,181.400 34.916 C 180.740 34.579,179.892 34.034,179.516 33.704 C 177.043 31.537,164.989 29.280,161.000 30.237 " stroke="none" fill="#ffffff" fill-rule="evenodd"></path></g></svg>