<svg xmlns="http://www.w3.org/2000/svg" xmlns:xlink="http://www.w3.org/1999/xlink" version="1.1" style="enable-background:new 0 0 496 496;" xml:space="preserve" width="496" height="336.3225818732277"><rect id="backgroundrect" width="100%" height="100%" x="0" y="0" fill="none" stroke="none" class="" style=""/> <g class="currentLayer" style=""><title>Layer 1</title><g id="svg_1" class="" transform=""><path style="fill:#E73B36;" d="M 0.0000038147 224 v 65.6 C 0.0000038147 316.8 21.6 336 48 336 h 400 c 26.4 0 48 -19.2 48 -46.4 V 224 H 0.0000038147 Z" data-original="#E73B36" id="svg_2" transform=""/><path style="fill:#F0F7F6;" d="M 448 0 H 48 C 21.6 0 0.0000038147 19.2 0.0000038147 46.4 V 112 h 496 v -65.6 C 496 19.2 474.4 0 448 0 Z" data-original="#F0F7F6" id="svg_3" transform=""/><rect y="112" style="fill:#3757A6;" width="496" height="112" data-original="#3757A6" id="svg_4" x="0.0000037550926208496094" transform=""/><path style="fill:#D31C1C;" d="M 446.4 336 c 26.4 0 49.6 -19.2 49.6 -46.4 V 224 H 315.2 L 446.4 336 Z" data-original="#D31C1C" id="svg_5" transform=""/><path style="fill:#DFF2EF;" d="M 448 0 H 48 l 132.8 112 H 496 v -65.6 C 496 19.2 474.4 0 448 0 Z" data-original="#DFF2EF" id="svg_6" transform=""/><polygon style="fill:#20448E;" points="316 224 496 224 496 112 180 112" data-original="#20448E" id="svg_7" transform=""/><path style="fill:#CAEAE4;" d="M 448 0 H 48 l 370.4 112 H 496 v -65.6 C 496 19.2 474.4 0 448 0 Z" data-original="#CAEAE4" id="svg_8" transform=""/><polygon style="fill:#103577;" points="496 134.4 496 112 414.4 112" data-original="#103577" id="svg_9" transform=""/><path style="fill:#C41010" d="M 496 288.8 c 0 29.6 -21.6 47.2 -48 47.2 H 48 c -26.4 0 -48 -20.8 -48 -48" data-original="#C41010" class="active-path" id="svg_10" transform=""/></g></g></svg>