<svg xmlns="http://www.w3.org/2000/svg" xmlns:xlink="http://www.w3.org/1999/xlink" version="1.1" style="enable-background:new 0 0 496 496;" xml:space="preserve" width="496.61290321340175" height="336.2258064268035"><rect id="backgroundrect" width="100%" height="100%" x="0" y="0" fill="none" stroke="none" class="" style=""/> <g class="currentLayer" style=""><title>Layer 1</title><g id="svg_1" class="" transform=""><path style="fill:#FDCE0C;" d="M 0 168.161 v 121.6 C 0 316.961 21.6 336.161 48 336.161 h 400 c 26.4 0 48 -19.2 48 -46.4 V 168.161 H 0 Z" data-original="#FDCE0C" id="svg_2" transform=""/><path style="fill:#F4BA00;" d="M 248 168.161 l 197.6 168 c 26.4 0 50.4 -19.2 50.4 -46.4 V 168.161 H 248 Z" data-original="#F4BA00" class="" id="svg_3" transform=""/><path style="fill:#44C1EF;" d="M 448 0.161291 H 48 C 21.6 0.161291 0 19.3613 0 46.5613 V 168.161 h 496 V 46.5613 C 496 19.3613 474.4 0.161291 448 0.161291 Z" data-original="#44C1EF" id="svg_4" transform=""/><path style="fill:#18B4EA;" d="M 448 0.161291 H 48 l 200 168 h 248 V 46.5613 C 496 19.3613 474.4 0.161291 448 0.161291 Z" data-original="#18B4EA" class="" id="svg_5" transform=""/><path style="fill:#F2A700;" d="M 496 288.961 c 0 29.6 -21.6 47.2 -48 47.2 H 48 c -26.4 0 -48 -20.8 -48 -48" data-original="#F2A700" class="" id="svg_6" transform=""/><path style="fill:#10A2E2" d="M 48 0.161291 h 400 c 26.4 0 48 19.2 48 46.4 V 136.161" data-original="#10A2E2" class="active-path" id="svg_7" transform=""/></g></g></svg>